<svg width="129" height="128" viewBox="0 0 129 128" fill="none" xmlns="http://www.w3.org/2000/svg">
<g id="cookie">
<mask id="mask0_629_5174" style="mask-type:alpha" maskUnits="userSpaceOnUse" x="0" y="0" width="129" height="128">
<rect id="Bounding box" x="0.311035" width="128" height="128" fill="#D9D9D9"/>
</mask>
<g mask="url(#mask0_629_5174)">
<path id="cookie_2" d="M64.3111 117.334C56.9333 117.334 50 115.934 43.5111 113.134C37.0222 110.334 31.3778 106.534 26.5778 101.734C21.7778 96.9341 17.9778 91.2896 15.1778 84.8007C12.3778 78.3118 10.9778 71.3785 10.9778 64.0007C10.9778 57.3341 12.2667 50.8007 14.8444 44.4007C17.4222 38.0007 21.0222 32.2896 25.6445 27.2674C30.2667 22.2452 35.8222 18.2007 42.3111 15.1341C48.8 12.0674 55.9111 10.5341 63.6445 10.5341C65.5111 10.5341 67.4222 10.6229 69.3778 10.8007C71.3333 10.9785 73.3333 11.2896 75.3778 11.7341C74.5778 15.7341 74.8445 19.5118 76.1778 23.0674C77.5111 26.6229 79.5111 29.5785 82.1778 31.9341C84.8445 34.2896 88.0222 35.9118 91.7111 36.8007C95.4 37.6896 99.2 37.4674 103.111 36.1341C100.8 41.3785 101.133 46.4007 104.111 51.2007C107.089 56.0007 111.511 58.4896 117.378 58.6674C117.467 59.6452 117.533 60.5563 117.578 61.4007C117.622 62.2452 117.644 63.1563 117.644 64.1341C117.644 71.4229 116.244 78.2896 113.444 84.7341C110.644 91.1785 106.844 96.8229 102.044 101.667C97.2445 106.512 91.6 110.334 85.1111 113.134C78.6222 115.934 71.6889 117.334 64.3111 117.334ZM56.3111 53.3341C58.5333 53.3341 60.4222 52.5563 61.9778 51.0007C63.5333 49.4452 64.3111 47.5563 64.3111 45.3341C64.3111 43.1118 63.5333 41.2229 61.9778 39.6674C60.4222 38.1118 58.5333 37.3341 56.3111 37.3341C54.0889 37.3341 52.2 38.1118 50.6445 39.6674C49.0889 41.2229 48.3111 43.1118 48.3111 45.3341C48.3111 47.5563 49.0889 49.4452 50.6445 51.0007C52.2 52.5563 54.0889 53.3341 56.3111 53.3341ZM45.6445 80.0007C47.8667 80.0007 49.7556 79.2229 51.3111 77.6674C52.8667 76.1118 53.6445 74.2229 53.6445 72.0007C53.6445 69.7785 52.8667 67.8896 51.3111 66.3341C49.7556 64.7785 47.8667 64.0007 45.6445 64.0007C43.4222 64.0007 41.5333 64.7785 39.9778 66.3341C38.4222 67.8896 37.6445 69.7785 37.6445 72.0007C37.6445 74.2229 38.4222 76.1118 39.9778 77.6674C41.5333 79.2229 43.4222 80.0007 45.6445 80.0007ZM80.3111 85.3341C81.8222 85.3341 83.0889 84.8229 84.1111 83.8007C85.1333 82.7785 85.6445 81.5118 85.6445 80.0007C85.6445 78.4896 85.1333 77.2229 84.1111 76.2007C83.0889 75.1785 81.8222 74.6674 80.3111 74.6674C78.8 74.6674 77.5333 75.1785 76.5111 76.2007C75.4889 77.2229 74.9778 78.4896 74.9778 80.0007C74.9778 81.5118 75.4889 82.7785 76.5111 83.8007C77.5333 84.8229 78.8 85.3341 80.3111 85.3341ZM64.3111 106.667C75.1556 106.667 84.7778 102.934 93.1778 95.4674C101.578 88.0007 106.178 78.4896 106.978 66.9341C102.533 64.9785 99.0445 62.3118 96.5111 58.9341C93.9778 55.5563 92.2667 51.7785 91.3778 47.6007C84.5333 46.6229 78.6667 43.6896 73.7778 38.8007C68.8889 33.9118 65.8667 28.0452 64.7111 21.2007C57.6 21.0229 51.3556 22.3118 45.9778 25.0674C40.6 27.8229 36.1111 31.3563 32.5111 35.6674C28.9111 39.9785 26.2 44.6674 24.3778 49.7341C22.5556 54.8007 21.6445 59.5563 21.6445 64.0007C21.6445 75.8229 25.8 85.8896 34.1111 94.2007C42.4222 102.512 52.4889 106.667 64.3111 106.667Z" fill="#1C1B1F"/>
</g>
</g>
</svg>
