<svg width="25" height="25" viewBox="0 0 25 25" fill="none" xmlns="http://www.w3.org/2000/svg">
<g id="ham-menu-icons">
<mask id="mask0_511_4870" style="mask-type:alpha" maskUnits="userSpaceOnUse" x="0" y="0" width="25" height="25">
<rect id="Bounding box" x="0.314453" y="0.634277" width="24" height="24" fill="#D9D9D9"/>
</mask>
<g mask="url(#mask0_511_4870)">
<path id="favorite" d="M12.3145 21.6343L10.8645 20.3343C9.18112 18.8176 7.78945 17.5093 6.68945 16.4093C5.58945 15.3093 4.71445 14.3218 4.06445 13.4468C3.41445 12.5718 2.96029 11.7676 2.70195 11.0343C2.44362 10.301 2.31445 9.55097 2.31445 8.7843C2.31445 7.21764 2.83945 5.9093 3.88945 4.8593C4.93945 3.8093 6.24779 3.2843 7.81445 3.2843C8.68112 3.2843 9.50612 3.46764 10.2895 3.8343C11.0728 4.20097 11.7478 4.71764 12.3145 5.3843C12.8811 4.71764 13.5561 4.20097 14.3395 3.8343C15.1228 3.46764 15.9478 3.2843 16.8145 3.2843C18.3811 3.2843 19.6895 3.8093 20.7395 4.8593C21.7895 5.9093 22.3145 7.21764 22.3145 8.7843C22.3145 9.55097 22.1853 10.301 21.927 11.0343C21.6686 11.7676 21.2145 12.5718 20.5645 13.4468C19.9145 14.3218 19.0395 15.3093 17.9395 16.4093C16.8395 17.5093 15.4478 18.8176 13.7645 20.3343L12.3145 21.6343ZM12.3145 18.9343C13.9145 17.501 15.2311 16.2718 16.2645 15.2468C17.2978 14.2218 18.1145 13.3301 18.7145 12.5718C19.3145 11.8135 19.7311 11.1385 19.9645 10.5468C20.1978 9.95514 20.3145 9.36764 20.3145 8.7843C20.3145 7.7843 19.9811 6.95097 19.3145 6.2843C18.6478 5.61764 17.8145 5.2843 16.8145 5.2843C16.0311 5.2843 15.3061 5.50514 14.6395 5.9468C13.9728 6.38847 13.5145 6.95097 13.2645 7.6343H11.3645C11.1145 6.95097 10.6561 6.38847 9.98945 5.9468C9.32279 5.50514 8.59779 5.2843 7.81445 5.2843C6.81445 5.2843 5.98112 5.61764 5.31445 6.2843C4.64779 6.95097 4.31445 7.7843 4.31445 8.7843C4.31445 9.36764 4.43112 9.95514 4.66445 10.5468C4.89779 11.1385 5.31445 11.8135 5.91445 12.5718C6.51445 13.3301 7.33112 14.2218 8.36445 15.2468C9.39779 16.2718 10.7145 17.501 12.3145 18.9343Z" fill="#1C1B1F"/>
</g>
</g>
</svg>
