<svg width="100" height="100" viewBox="0 0 55 55" fill="none" xmlns="http://www.w3.org/2000/svg">
<path d="M36.1438 40.2788C36.0546 40.5528 35.9508 40.8204 35.8325 41.0778C37.8724 42.3976 39.2254 44.6927 39.2254 47.2991C39.2254 51.3809 35.9031 54.7033 31.8212 54.7033H12.0533C10.5218 54.7033 9.04222 54.2488 7.7743 53.3897L7.76392 53.3835L7.75562 53.3752C4.61798 51.2253 3.5472 47.1808 5.20733 43.7609L5.21148 43.7547L5.21563 43.7464C8.88243 36.2593 8.60228 33.2586 8.1084 32.1359V32.1297L8.10425 32.1235C6.76369 29.0543 7.61451 25.4041 10.1732 23.2459L10.1794 23.2418L10.1877 23.2356L15.8404 18.5063L23.0433 4.43877C24.0477 2.47152 25.8572 1.04173 28.0133 0.514645C28.6027 0.369383 29.2086 0.294678 29.8166 0.294678C31.4187 0.294678 32.9543 0.790641 34.2554 1.72654L47.3911 11.1415C49.1737 12.4178 50.3192 14.4037 50.5309 16.5847L50.5537 16.815V16.871C50.562 17.0018 50.5682 17.1553 50.5682 17.3255C50.5682 19.2616 49.8398 21.1064 48.5263 22.5134L38.4119 33.3831L36.1438 40.2788Z" fill="white"/>
<path d="M31.8212 54.9958H12.0533C10.4637 54.9958 8.92601 54.5248 7.60828 53.6325L7.57508 53.6076C4.32746 51.3726 3.21932 47.1808 4.9417 43.6323L4.95415 43.6074C8.56493 36.2323 8.30968 33.3291 7.83862 32.2542L7.82825 32.2293C6.44204 29.0543 7.32606 25.263 9.98226 23.0218L10.0113 23.0011L15.6059 18.3195L22.7818 4.30388C23.8256 2.25985 25.7057 0.774034 27.9448 0.228267C28.5591 0.0767809 29.1899 0 29.8187 0C31.483 0 33.0767 0.514639 34.4297 1.48789L47.5655 10.9029C49.4186 12.2289 50.6056 14.2895 50.8255 16.5577L50.8504 16.8731C50.8608 17.0121 50.865 17.1719 50.865 17.3276C50.865 19.3384 50.1117 21.2517 48.7441 22.7168L38.6734 33.5387L36.426 40.3722C36.3596 40.5776 36.2849 40.7789 36.204 40.9719C38.2874 42.4162 39.5221 44.7632 39.5221 47.3012C39.5221 51.5469 36.0691 55 31.8233 55L31.8212 54.9958ZM7.95068 53.1531C9.16672 53.9749 10.5861 54.4086 12.0533 54.4086H31.8212C35.7412 54.4086 38.9307 51.2191 38.9307 47.2991C38.9307 44.8774 37.7126 42.6445 35.6727 41.3247L35.459 41.1857L35.5648 40.9533C35.6769 40.7105 35.7765 40.4531 35.8636 40.1854L38.1525 33.2274L38.1961 33.1797L48.3104 22.31C49.5763 20.955 50.2735 19.1828 50.2735 17.3234C50.2735 17.1802 50.2694 17.0329 50.259 16.8876V16.8295L50.2362 16.6116C50.0328 14.5137 48.933 12.6066 47.2189 11.3781L34.0832 1.9631C32.8318 1.06248 31.3543 0.58727 29.8166 0.58727C29.2356 0.58727 28.6525 0.657825 28.0839 0.798936C26.0129 1.30527 24.2697 2.6811 23.3048 4.57157L16.0749 18.693L10.3496 23.4804C7.8988 25.5556 7.08742 29.0584 8.37401 32.0052L8.38231 32.028C8.89073 33.1859 9.19785 36.28 5.47917 43.8751L5.46464 43.9021C3.87715 47.1891 4.9085 51.0676 7.92163 53.1324L7.94861 53.1531H7.95068Z" fill="#1D1D1B"/>
<path d="M43.5598 16.481L30.4199 7.06393C30.1751 6.88754 29.8659 6.82528 29.5712 6.89791C29.2786 6.96847 29.0296 7.16353 28.8926 7.4333L23.0697 18.8031V18.8072L22.0903 20.7143L21.5673 21.7353C21.5217 21.8245 21.4905 21.9158 21.4739 22.0092C21.4677 22.0403 21.4615 22.0715 21.4594 22.1026C21.4511 22.1628 21.4511 22.225 21.4573 22.2852C21.4573 22.3018 21.4594 22.3205 21.4615 22.3371C21.4636 22.3475 21.4636 22.3558 21.4656 22.3661H21.4636L14.408 28.272C14.1922 28.4547 14.0656 28.7058 14.0428 28.9734C14.0345 29.0399 14.0345 29.1083 14.0428 29.1747C14.0449 29.2017 14.049 29.2308 14.0532 29.2577C14.0677 29.3345 14.0926 29.4113 14.1237 29.486C14.3375 29.9716 14.5118 30.48 14.6425 31.0113C14.6861 31.1876 14.7255 31.3682 14.7608 31.5508C14.7629 31.5508 14.7629 31.5529 14.7608 31.5549C14.8044 31.7728 14.8397 31.9928 14.8666 32.219C14.8957 32.4452 14.9185 32.6755 14.9351 32.91C14.9517 33.1528 14.96 33.3977 14.9621 33.6488C14.9621 33.8003 14.9621 33.9559 14.96 34.1136C14.96 34.1489 14.9579 34.1862 14.9559 34.2257C14.9559 34.263 14.9538 34.3004 14.9517 34.3377C14.9517 34.3647 14.9517 34.3938 14.9517 34.4207C14.9455 34.5307 14.9393 34.6407 14.933 34.7507C14.9185 34.952 14.9019 35.1574 14.8812 35.3629C14.8708 35.4604 14.8604 35.5579 14.848 35.6555C14.7774 36.2261 14.6778 36.8155 14.5491 37.4276C13.9826 40.0735 12.8434 43.1177 11.121 46.633C11.0649 46.7493 11.0317 46.8696 11.0214 46.99C11.0172 47.0294 11.0151 47.0668 11.0151 47.1062C11.0214 47.4341 11.1811 47.7516 11.4696 47.9487C11.646 48.0691 11.8494 48.1272 12.0527 48.1272H31.8207C32.2482 48.1272 32.603 47.8014 32.6466 47.3822C32.6487 47.3531 32.6507 47.3262 32.6507 47.2971C32.6507 47.2743 32.6507 47.2514 32.6466 47.2286C32.6134 46.8032 32.2544 46.467 31.8207 46.467H14.0739C17.4066 43.0928 20.0545 41.524 22.4908 40.6213C23.6155 40.2042 24.6967 39.9303 25.7778 39.6875C26.1098 39.6107 26.4439 39.5381 26.778 39.4655C27.5562 39.2974 28.3614 39.1231 29.1769 38.9072C29.5152 38.818 29.787 38.5628 29.897 38.2287L31.7875 32.4784L32.2004 31.2188L32.6321 29.9073C32.6881 29.8699 32.7379 29.8243 32.7856 29.7745L33.8211 28.6622L36.1723 26.1346H36.1744L43.7134 18.0311C43.8504 17.8838 43.9417 17.7012 43.977 17.5082C43.9811 17.4791 43.9853 17.4501 43.9873 17.421C43.9936 17.3609 43.9936 17.2986 43.9873 17.2384V17.2218C43.9583 16.9251 43.8026 16.6553 43.5598 16.481ZM41.383 17.4916L32.0821 27.4835L31.8892 27.691L23.8272 21.8909L23.8209 21.8868L30.1896 9.45036L41.3913 17.4812L41.383 17.4916ZM22.8622 23.9038L23.0033 24.0055L26.9627 26.8547L30.5943 29.4653L30.5901 29.4777L30.4863 29.7911L28.1829 36.803L28.1041 37.0396C28.0543 37.052 28.0045 37.0645 27.9547 37.0749C27.4213 37.2035 26.8901 37.3177 26.3381 37.438C24.5327 37.8282 22.7004 38.2266 20.6833 39.1147C19.901 39.4572 19.0896 39.8763 18.2429 40.3951C18.2367 40.3993 18.2284 40.4034 18.2222 40.4076L19.708 38.3013L23.1507 33.4164C24.0679 33.3811 24.8108 32.6714 24.9021 31.7666C24.9062 31.7376 24.9062 31.7064 24.9083 31.6774C24.9104 31.6483 24.9104 31.6172 24.9104 31.5861C24.9104 31.5591 24.9104 31.5342 24.9083 31.5093C24.9062 31.4782 24.9042 31.4491 24.9021 31.418C24.8979 31.3723 24.8917 31.3267 24.8834 31.281C24.8813 31.2727 24.8813 31.2644 24.8793 31.2561C24.8793 31.252 24.8772 31.2457 24.8751 31.2416C24.8751 31.2374 24.873 31.2354 24.873 31.2312C24.8668 31.1939 24.8606 31.1565 24.8502 31.1192C24.8461 31.1026 24.8398 31.0839 24.8357 31.0673C24.8336 31.0611 24.8315 31.0528 24.8295 31.0465C24.8149 31.003 24.8004 30.9594 24.7838 30.9179C24.7216 30.7581 24.6365 30.6087 24.5348 30.4738C24.5016 30.4323 24.4684 30.3929 24.4331 30.3534C24.3958 30.3119 24.3563 30.2725 24.3148 30.2351C24.2401 30.1667 24.1613 30.1044 24.0762 30.0484C24.0596 30.038 24.0409 30.0256 24.0222 30.0152C23.8936 29.9363 23.7545 29.8741 23.6072 29.8305C23.5864 29.8243 23.5657 29.818 23.547 29.8118C23.3976 29.7724 23.2399 29.7516 23.076 29.7516C22.912 29.7516 22.7543 29.7724 22.6049 29.8118C22.5862 29.818 22.5655 29.8243 22.5447 29.8305C22.4036 29.872 22.2708 29.9322 22.1484 30.0048C22.1235 30.0193 22.0986 30.0339 22.0757 30.0505C21.9907 30.1044 21.9118 30.1667 21.8371 30.2351C21.7956 30.2725 21.7562 30.3119 21.7209 30.3534C21.6835 30.3929 21.6482 30.4364 21.615 30.48C21.586 30.5174 21.559 30.5547 21.5341 30.5941C21.5279 30.6045 21.5217 30.6149 21.5154 30.6253C21.4864 30.6709 21.4615 30.7166 21.4387 30.7643C21.3909 30.8577 21.3515 30.9552 21.3204 31.0569C21.3204 31.0611 21.3183 31.0631 21.3183 31.0673C21.3141 31.0839 21.3079 31.1026 21.3038 31.1192C21.2934 31.1565 21.2872 31.1939 21.2809 31.2312C21.2809 31.2354 21.2809 31.2374 21.2809 31.2416C21.2789 31.2478 21.2768 31.254 21.2768 31.2603C21.2747 31.2665 21.2747 31.2748 21.2726 31.281C21.2643 31.3267 21.2581 31.3723 21.254 31.418C21.2498 31.4491 21.2498 31.4782 21.2477 31.5093C21.2457 31.5342 21.2457 31.5591 21.2457 31.5861C21.2457 31.6276 21.2477 31.6691 21.2498 31.7106C21.2519 31.7417 21.254 31.7708 21.2581 31.8019C21.2602 31.833 21.2643 31.8641 21.2706 31.8932C21.2726 31.9077 21.2747 31.9222 21.2789 31.9368C21.2872 31.9824 21.2996 32.0239 21.31 32.0675V32.0717L17.9503 36.8342L16.284 39.1957L16.2777 39.2061C16.5641 38.1311 16.7862 37.05 16.9169 35.973C16.9335 35.8298 16.9501 35.6887 16.9646 35.5455C16.9791 35.4023 16.9916 35.2591 17.002 35.1159C17.0103 35.0225 17.0165 34.9271 17.0206 34.8316C17.0642 34.1198 17.0621 33.4101 17.0103 32.7108C16.9937 32.4888 16.9708 32.2688 16.9439 32.0488C16.9169 31.8289 16.8837 31.6089 16.8463 31.391C16.728 30.7145 16.5558 30.0463 16.3213 29.3947C16.3192 29.3906 16.3192 29.3864 16.3172 29.3823L22.8643 23.9038H22.8622Z" fill="#1D1D1B"/>
<path d="M30.5911 29.4777L30.4873 29.7911L28.1839 36.803L27.9556 37.0749C27.4223 37.2035 26.891 37.3177 26.3391 37.438C24.5337 37.8282 22.7013 38.2266 20.6842 39.1148C19.9019 39.4572 19.0905 39.8763 18.2439 40.3951L19.7151 38.3075L23.1516 33.433C23.2097 33.4309 23.2678 33.4247 23.3238 33.4184H23.328C23.382 33.4101 23.4359 33.3998 23.4899 33.3873C23.4919 33.3873 23.4961 33.3873 23.5002 33.3852C23.5438 33.3749 23.5853 33.3645 23.6268 33.35C23.7762 33.3043 23.9173 33.2379 24.046 33.157C24.0709 33.1445 24.0937 33.13 24.1166 33.1113C24.1394 33.0968 24.1622 33.0802 24.185 33.0615C24.2079 33.047 24.2286 33.0304 24.2494 33.0096C24.2722 32.993 24.2929 32.9744 24.3137 32.9557C24.3345 32.937 24.3552 32.9183 24.3739 32.8976C24.3946 32.8789 24.4133 32.8581 24.432 32.8374C24.4527 32.8166 24.4693 32.7959 24.4859 32.7751C24.5233 32.7336 24.5565 32.6901 24.5855 32.6444C24.6042 32.6195 24.6187 32.5967 24.6333 32.5718C24.6457 32.5531 24.6582 32.5344 24.6686 32.5157C24.6914 32.4763 24.7121 32.4348 24.7329 32.3912C24.7516 32.3518 24.7702 32.3124 24.7848 32.2709C24.8076 32.2148 24.8263 32.1567 24.8429 32.0986C24.8574 32.0447 24.8719 31.9907 24.8802 31.9347C24.8906 31.8787 24.8989 31.8226 24.903 31.7666C24.9072 31.7376 24.9072 31.7064 24.9093 31.6774C24.9113 31.6483 24.9113 31.6172 24.9113 31.5861C24.9113 31.5591 24.9113 31.5342 24.9093 31.5093C24.9072 31.4782 24.9051 31.4491 24.903 31.418C24.8989 31.3723 24.8927 31.3267 24.8844 31.281C24.8823 31.2727 24.8823 31.2644 24.8802 31.2561C24.8802 31.252 24.8781 31.2458 24.8761 31.2416C24.8761 31.2375 24.874 31.2354 24.874 31.2312C24.8678 31.1939 24.8615 31.1565 24.8512 31.1192C24.847 31.1026 24.8408 31.0839 24.8366 31.0673C24.8346 31.0611 24.8325 31.0528 24.8304 31.0465C24.818 31.003 24.8014 30.9594 24.7848 30.9179C24.7225 30.7581 24.6374 30.6087 24.5357 30.4738C24.5025 30.4323 24.4693 30.3908 24.4341 30.3534C24.3967 30.3119 24.3573 30.2725 24.3158 30.2351C24.2411 30.1667 24.1622 30.1044 24.0771 30.0484C24.0605 30.038 24.0419 30.0256 24.0232 30.0152C23.8945 29.9363 23.7555 29.8741 23.6081 29.8305C23.5874 29.8243 23.5666 29.818 23.548 29.8118C23.3986 29.7724 23.2408 29.7516 23.0769 29.7516C22.913 29.7516 22.7553 29.7724 22.6058 29.8118C22.5872 29.818 22.5664 29.8243 22.5457 29.8305C22.4046 29.872 22.2717 29.9322 22.1493 30.0048C22.1244 30.0193 22.0995 30.0339 22.0767 30.0505C21.9916 30.1044 21.9127 30.1667 21.838 30.2351C21.7965 30.2725 21.7571 30.3119 21.7218 30.3534C21.6824 30.3949 21.6492 30.4364 21.616 30.48C21.5869 30.5174 21.56 30.5547 21.5351 30.5941C21.5288 30.6045 21.5226 30.6149 21.5164 30.6253C21.4873 30.6709 21.4624 30.7166 21.4396 30.7643C21.3919 30.8577 21.3524 30.9552 21.3213 31.0569C21.3213 31.0611 21.3192 31.0631 21.3192 31.0673C21.3151 31.0839 21.3089 31.1026 21.3047 31.1192C21.2943 31.1565 21.2881 31.1939 21.2819 31.2312C21.2819 31.2354 21.2819 31.2375 21.2819 31.2416C21.2798 31.2478 21.2777 31.2541 21.2777 31.2603C21.2757 31.2665 21.2757 31.2748 21.2736 31.281C21.2653 31.3267 21.2591 31.3723 21.2549 31.418C21.2508 31.4491 21.2508 31.4782 21.2487 31.5093C21.2466 31.5342 21.2466 31.5591 21.2466 31.5861C21.2466 31.6276 21.2487 31.6691 21.2508 31.7106C21.2528 31.7417 21.2549 31.7708 21.2591 31.8019C21.2611 31.833 21.2653 31.8641 21.2715 31.8932C21.2736 31.9077 21.2757 31.9223 21.2798 31.9368C21.2819 31.9534 21.284 31.9679 21.2881 31.9824C21.2943 32.0136 21.3006 32.0426 21.3089 32.0717L17.9513 36.8342L16.2849 39.1957C16.5692 38.1249 16.7892 37.0479 16.9199 35.975C16.9365 35.8319 16.9531 35.6887 16.9656 35.5455C16.9801 35.4023 16.9925 35.2591 17.0029 35.1159C17.0112 35.0225 17.0174 34.9271 17.0216 34.8316C17.0652 34.1198 17.0631 33.4101 17.0112 32.7108C16.9946 32.4888 16.9718 32.2688 16.9448 32.0488C16.9178 31.8289 16.8846 31.6089 16.8473 31.391C16.729 30.7145 16.5568 30.0463 16.3223 29.3947L22.8652 23.9204L22.998 24.0159L27.111 26.9751L30.5931 29.4777H30.5911Z" fill="white"/>
<path d="M41.3835 17.4917L32.0826 27.4836L31.8896 27.6911L23.8276 21.891L30.1901 9.46707L41.3835 17.4917Z" fill="white"/>
</svg>
