<svg width="100" height="100" viewBox="0 0 57 56" fill="none" xmlns="http://www.w3.org/2000/svg">
<path d="M52.3021 41.9262C51.9555 42.2188 51.9417 42.741 52.262 43.0629C52.7996 43.6051 53.2093 44.2797 53.445 45.0575C53.7792 46.1634 53.8855 47.867 52.4977 49.6953C51.7306 50.7057 50.6617 51.5606 49.6328 52.3492C49.0275 52.8128 48.4283 53.2441 47.9539 53.5768C47.4779 53.911 47.1268 54.1467 47.0159 54.2206C46.255 54.7305 45.3662 55 44.4467 55H11.1999C10.4913 55 9.78435 54.8352 9.15746 54.5256C7.2352 53.5799 4.40726 51.9949 2.0645 49.1778C0.924696 47.8085 0.676712 45.8785 1.43453 44.2597C2.19234 42.6439 3.83427 41.6012 5.61945 41.6012H8.41197C8.96493 41.6012 9.33613 41.0343 9.11433 40.5276C8.8186 39.8483 8.55521 39.1629 8.32725 38.4713C7.09195 34.73 6.807 30.7099 7.47856 26.5188C7.84053 24.2654 9.75971 22.6296 12.0424 22.6296H15.796C16.2381 22.6296 16.5862 22.2569 16.5616 21.8148C16.4722 20.2376 16.7387 18.7235 18.0726 16.393C18.1388 16.276 18.2097 16.162 18.2913 16.0449L18.3051 16.0249L18.3175 16.0064C18.8797 15.1623 18.49 14.5047 18.3236 14.2428C17.7953 13.4003 17.6274 12.8181 17.7106 11.8092C17.8138 10.5785 18.3899 9.46179 19.331 8.66547C20.1643 7.96003 21.224 7.57188 22.316 7.57188C23.1524 7.57188 23.9595 7.79676 24.6619 8.21109C24.896 8.34817 25.1871 8.34972 25.4212 8.21109C26.1282 7.79522 26.9384 7.57188 27.7671 7.57188C28.6681 7.57188 29.5368 7.83218 30.2762 8.31121C30.5241 8.4714 30.8445 8.4714 31.0925 8.31121C31.8365 7.83064 32.7083 7.57188 33.6001 7.57188C34.9617 7.57188 36.2478 8.16796 37.1288 9.20765C38.8432 11.2346 39.6118 13.2478 39.4747 15.3595C39.3376 17.462 38.3025 19.2456 37.3722 20.5903C37.3537 20.618 37.3352 20.6473 37.3198 20.6765C37.3013 20.712 37.2844 20.7458 37.269 20.7782C37.2413 20.8367 37.2197 20.8983 37.2059 20.9615C36.9471 22.2245 37.2182 22.4879 38.4704 22.6234C38.4997 22.6265 38.5289 22.6281 38.5582 22.6281H42.9249C44.7825 22.6281 46.4229 23.7371 47.1514 25.3774C47.2638 25.6316 47.5118 25.7964 47.7875 25.8195C49.1692 25.9335 50.5107 26.3786 51.7075 27.1226C53.254 28.0868 54.4677 29.49 55.2178 31.1797C55.9787 32.8909 56.1897 34.7269 55.8278 36.4905C55.4227 38.4667 54.2397 40.2873 52.3005 41.9246L52.3021 41.9262Z" fill="white" stroke="#1D1D1B" stroke-width="0.440418" stroke-miterlimit="10"/>
<path d="M49.6687 30.3911C47.9667 29.3298 45.9582 29.393 44.0467 30.5374C44.0252 29.4053 43.9035 28.2624 43.6817 27.1041C43.6124 26.7421 43.2951 26.4803 42.9254 26.4803H12.0429C11.6655 26.4803 11.3436 26.7545 11.2836 27.1272C10.1746 34.0415 12.0121 40.0532 16.8948 45.4519H5.61843C5.31962 45.4519 5.04699 45.6244 4.92069 45.8955C4.79439 46.165 4.83443 46.4854 5.02543 46.7149C6.45172 48.4292 8.30467 49.8124 10.8584 51.0692C10.9647 51.1216 11.0802 51.1478 11.1988 51.1478H44.4457C44.5966 51.1478 44.746 51.1031 44.8723 51.0184C44.9216 50.9861 46.1092 50.1944 47.289 49.2902C49.6179 47.5066 49.9521 46.8181 49.7565 46.1696C49.6918 45.954 49.4485 45.4519 48.6013 45.4519H37.841C38.3385 44.9097 38.8067 44.3629 39.2442 43.8099C39.2549 43.8084 39.2657 43.8053 39.2765 43.8022C42.2354 43.0213 45.0664 41.9262 47.2443 40.7186C50.0784 39.149 51.6957 37.4655 52.0546 35.7173C52.4659 33.7134 51.4847 31.5232 49.6687 30.3911ZM47.6618 46.9921C46.8793 47.7022 45.4961 48.7403 44.2115 49.6075H11.3791C9.75253 48.7942 8.47564 47.9548 7.41747 46.9921H47.6618ZM35.7092 45.4519H19.0173C13.9051 40.315 11.8365 34.6037 12.7099 28.0206H42.2785C43.2874 34.3372 41.1341 40.0486 35.7092 45.4519ZM50.5467 35.4077C50.0415 37.8691 45.3806 40.3058 40.6982 41.786C42.6343 38.7948 43.7356 35.665 43.9913 32.415C44.0575 32.3903 44.1222 32.3534 44.1807 32.3087C45.7842 31.0688 47.4877 30.847 48.8539 31.6987C50.1139 32.4843 50.8255 34.043 50.5467 35.4077Z" fill="#1D1D1B"/>
<path d="M34.2505 25.1787C34.1227 25.1787 33.9918 25.1464 33.8716 25.0786C32.8412 24.4948 32.1388 23.6123 31.84 22.5264C31.4596 21.1386 31.7738 19.5028 32.7519 17.7946C32.7642 17.7731 32.778 17.7515 32.7919 17.7315C34.4569 15.3887 34.4985 14.4461 33.0137 12.6917C32.7395 12.3667 32.7796 11.8815 33.1046 11.6058C33.4296 11.3317 33.9148 11.3717 34.1905 11.6967C36.3777 14.2813 35.8709 16.0511 34.0719 18.5925C33.3171 19.9248 33.0584 21.1447 33.3279 22.1213C33.5143 22.8036 33.9656 23.3627 34.6325 23.7401C35.0022 23.9496 35.1331 24.4194 34.9236 24.7906C34.7819 25.0401 34.5216 25.1818 34.2521 25.1818L34.2505 25.1787Z" fill="#1D1D1B"/>
<path d="M28.4183 25.1787C28.2904 25.1787 28.1595 25.1464 28.0394 25.0786C27.0089 24.4948 26.3066 23.6123 26.0077 22.5264C25.6273 21.1386 25.9415 19.5028 26.9196 17.7946C26.9319 17.7731 26.9458 17.7515 26.9596 17.7315C28.6247 15.3887 28.6663 14.4461 27.1814 12.6917C26.9073 12.3667 26.9473 11.8815 27.2723 11.6058C27.5973 11.3317 28.0825 11.3717 28.3582 11.6967C30.5454 14.2813 30.0386 16.0511 28.2396 18.5925C27.4849 19.9248 27.2261 21.1447 27.4956 22.1213C27.682 22.8036 28.1333 23.3627 28.8003 23.7401C29.1699 23.9496 29.3008 24.4194 29.0914 24.7906C28.9497 25.0401 28.6894 25.1818 28.4198 25.1818L28.4183 25.1787Z" fill="#1D1D1B"/>
<path d="M22.9671 25.1787C22.8377 25.1787 22.7083 25.1464 22.5882 25.0786C21.5577 24.4948 20.8554 23.6123 20.5566 22.5264C20.1761 21.1386 20.4903 19.5028 21.4684 17.7946C21.4807 17.7731 21.4946 17.7515 21.5085 17.7315C23.1735 15.3887 23.2151 14.4461 21.7303 12.6917C21.4561 12.3667 21.4961 11.8815 21.8211 11.6058C22.1461 11.3317 22.6313 11.3717 22.907 11.6967C25.0942 14.2813 24.5875 16.0511 22.7884 18.5925C22.0337 19.9248 21.7749 21.1447 22.0429 22.1213C22.2293 22.8036 22.6821 23.3627 23.3475 23.7401C23.7172 23.9496 23.8481 24.4194 23.6387 24.7906C23.497 25.0401 23.2366 25.1818 22.9686 25.1818L22.9671 25.1787Z" fill="#1D1D1B"/>
</svg>
