<svg width="100" height="106" viewBox="0 0 57 56" fill="none" xmlns="http://www.w3.org/2000/svg">
<path d="M56 15.4355V41.6885C56 45.6908 52.744 48.9468 48.7417 48.9468H45.2323C44.657 52.3769 41.6669 55 38.0751 55H18.9653C15.3735 55 12.3834 52.3769 11.8081 48.9468H8.25828C4.25597 48.9468 1 45.6908 1 41.6885V15.4355C1 11.4332 4.25597 8.17723 8.25828 8.17723H48.7417C52.744 8.17723 56 11.4332 56 15.4355Z" fill="white" stroke="#1D1D1B" stroke-width="0.482492" stroke-miterlimit="10"/>
<path d="M24.6808 32.7696L15.7759 29.0068L15.7634 27.867L24.6637 23.8772L25.1721 25.0122L17.5764 28.4175L25.1644 31.6237L24.6808 32.7696Z" fill="#1D1D1B"/>
<path d="M32.1279 32.7558L31.6738 31.599L39.4235 28.5591L31.9972 24.9953L32.5352 23.8742L41.2505 28.0569L41.2085 29.1967L32.1279 32.7558Z" fill="#1D1D1B"/>
<path d="M29.9538 20.5304L25.7402 35.5913L26.9382 35.9264L31.1517 20.8655L29.9538 20.5304Z" fill="#1D1D1B"/>
<path d="M48.7426 14.8137H8.25917C7.91553 14.8137 7.63721 15.092 7.63721 15.4357V41.6886C7.63721 42.0323 7.91553 42.3106 8.25917 42.3106H24.9448V47.1199H18.9662C18.6226 47.1199 18.3443 47.3982 18.3443 47.7419C18.3443 48.0855 18.6226 48.3638 18.9662 48.3638H38.076C38.4196 48.3638 38.6979 48.0855 38.6979 47.7419C38.6979 47.3982 38.4196 47.1199 38.076 47.1199H31.9979V42.3106H48.7426C49.0862 42.3106 49.3646 42.0323 49.3646 41.6886V15.4357C49.3646 15.092 49.0862 14.8137 48.7426 14.8137ZM48.1206 41.0667H8.88113V16.0576H48.1206V41.0667Z" fill="#1D1D1B"/>
</svg>
