<svg width="100" height="100" viewBox="0 0 55 55" fill="none" xmlns="http://www.w3.org/2000/svg">
<rect x="0.235225" y="0.235225" width="54.5295" height="54.5295" rx="5.41017" fill="white"/>
<rect x="0.235225" y="0.235225" width="54.5295" height="54.5295" rx="5.41017" stroke="black" stroke-width="0.47045"/>
<path d="M27.3893 44.9604C26.1638 44.9604 25.1704 43.9735 25.1704 42.7545V29.58C25.1704 28.3621 26.1638 27.3752 27.3893 27.3752C28.6149 27.3752 29.6092 28.3621 29.6092 29.58V42.7545C29.6092 43.9735 28.6151 44.9604 27.3893 44.9604Z" fill="black"/>
<path d="M32.0249 23.8596C31.389 23.8596 30.7575 23.5884 30.3192 23.0658C29.5339 22.1277 29.6634 20.7388 30.6048 19.9587L41.9799 10.5505C42.9211 9.77071 44.3196 9.89681 45.1037 10.8354C45.8887 11.7715 45.7601 13.1609 44.818 13.9396L33.4438 23.35C33.0288 23.6919 32.526 23.8596 32.0249 23.8596Z" fill="black"/>
<path d="M22.9823 23.8594C22.4814 23.8594 21.979 23.6917 21.5642 23.3498L10.1821 13.9394C9.24023 13.1628 9.11137 11.7711 9.89485 10.8352C10.6781 9.89901 12.0785 9.7705 13.0206 10.5503L24.4027 19.9585C25.3439 20.7364 25.4734 22.1275 24.69 23.0656C24.2507 23.5882 23.6184 23.8594 22.9823 23.8594Z" fill="black"/>
</svg>
