<svg width="25" height="25" viewBox="0 0 25 25" fill="none" xmlns="http://www.w3.org/2000/svg">
<g id="ham-menu-icons">
<mask id="mask0_511_4875" style="mask-type:alpha" maskUnits="userSpaceOnUse" x="0" y="0" width="25" height="25">
<rect id="Bounding box" x="0.314453" y="0.634277" width="24" height="24" fill="#D9D9D9"/>
</mask>
<g mask="url(#mask0_511_4875)">
<path id="link" d="M11.3145 17.6343H7.31445C5.93112 17.6343 4.75195 17.1468 3.77695 16.1718C2.80195 15.1968 2.31445 14.0176 2.31445 12.6343C2.31445 11.2509 2.80195 10.0718 3.77695 9.09678C4.75195 8.12178 5.93112 7.63428 7.31445 7.63428H11.3145V9.63428H7.31445C6.48112 9.63428 5.77279 9.92594 5.18945 10.5093C4.60612 11.0926 4.31445 11.8009 4.31445 12.6343C4.31445 13.4676 4.60612 14.1759 5.18945 14.7593C5.77279 15.3426 6.48112 15.6343 7.31445 15.6343H11.3145V17.6343ZM8.31445 13.6343V11.6343H16.3145V13.6343H8.31445ZM13.3145 17.6343V15.6343H17.3145C18.1478 15.6343 18.8561 15.3426 19.4395 14.7593C20.0228 14.1759 20.3145 13.4676 20.3145 12.6343C20.3145 11.8009 20.0228 11.0926 19.4395 10.5093C18.8561 9.92594 18.1478 9.63428 17.3145 9.63428H13.3145V7.63428H17.3145C18.6978 7.63428 19.877 8.12178 20.852 9.09678C21.827 10.0718 22.3145 11.2509 22.3145 12.6343C22.3145 14.0176 21.827 15.1968 20.852 16.1718C19.877 17.1468 18.6978 17.6343 17.3145 17.6343H13.3145Z" fill="#1C1B1F"/>
</g>
</g>
</svg>
