<svg width="25" height="25" viewBox="0 0 25 25" fill="none" xmlns="http://www.w3.org/2000/svg">
<g id="ham-menu-icons">
<mask id="mask0_511_4887" style="mask-type:alpha" maskUnits="userSpaceOnUse" x="0" y="0" width="25" height="25">
<rect id="Bounding box" x="0.314453" y="0.634277" width="24" height="24" fill="#D9D9D9"/>
</mask>
<g mask="url(#mask0_511_4887)">
<path id="logout" d="M5.31445 21.6343C4.76445 21.6343 4.29362 21.4384 3.90195 21.0468C3.51029 20.6551 3.31445 20.1843 3.31445 19.6343V5.63428C3.31445 5.08428 3.51029 4.61344 3.90195 4.22178C4.29362 3.83011 4.76445 3.63428 5.31445 3.63428H12.3145V5.63428H5.31445V19.6343H12.3145V21.6343H5.31445ZM16.3145 17.6343L14.9395 16.1843L17.4895 13.6343H9.31445V11.6343H17.4895L14.9395 9.08428L16.3145 7.63428L21.3145 12.6343L16.3145 17.6343Z" fill="#1C1B1F"/>
</g>
</g>
</svg>
