<svg width="617" height="401" viewBox="0 0 617 401" fill="none" xmlns="http://www.w3.org/2000/svg">
<path d="M277.031 23.3198L242.852 26.3197L244.352 43.3593C247.562 79.7484 261.391 122.807 281.341 158.547C281.741 159.267 282.151 159.997 282.571 160.726C243.512 183.736 212.653 216.515 193.183 255.724L185.574 271.054L216.323 286.233L223.932 270.904C240.662 237.225 267.411 209.065 301.36 189.396C319.109 212.955 343.519 236.565 375.568 249.774C405.657 262.174 439.916 251.544 457.025 224.495C468.795 205.905 470.935 185.156 463.385 162.846C455.865 140.627 434.946 125.697 411.326 125.697H411.306C377.588 125.697 344.209 132.437 313.28 145.357C312.61 144.197 311.95 143.047 311.32 141.907C293.6 110.158 281.341 72.1986 278.531 40.3594L277.031 23.3198ZM333.029 174.316C357.918 164.836 384.487 159.906 411.306 159.906H411.316C420.196 159.906 428.056 165.486 430.866 173.786C435.066 186.206 434.156 196.516 428.006 206.245C419.826 219.175 403.287 224.185 388.677 218.165C365.678 208.685 347.239 191.936 333.039 174.326L333.029 174.316Z" fill="black" fill-opacity="0.3"/>
<path d="M142.485 321.272C138.585 299.633 126.126 282.893 105.446 271.504C97.1567 266.934 88.067 264.704 79.0173 264.704C65.5977 264.704 52.2981 269.614 41.8784 279.113C26.2289 293.383 12.5194 309.543 0.979736 327.102V400.62H78.4272C85.467 399.19 92.5068 397.26 99.4866 394.731C130.086 383.641 148.165 352.742 142.485 321.272ZM87.757 362.581C72.3675 368.161 48.9182 372.571 17.0092 367.681C28.9589 343.922 45.2384 322.402 65.0377 304.343C71.5975 298.373 81.1672 297.203 88.8569 301.433C100.367 307.773 106.676 315.992 108.716 327.312C111.426 342.362 102.616 357.181 87.757 362.571V362.581Z" fill="black" fill-opacity="0.3"/>
<path d="M616.96 363.161C595.241 346.751 569.732 332.202 544.152 321.962C543.382 321.652 542.612 321.352 541.822 321.042C557.632 278.653 560.912 233.814 551.282 191.125L547.512 174.435L514.033 181.945L517.793 198.635C526.063 235.304 523.063 273.963 509.113 310.562C480.444 303.392 446.575 300.382 413.337 310.232C382.128 319.482 362.228 349.251 366.008 381C366.838 388 368.618 394.54 371.258 400.63H413.617C405.577 394.26 401.227 386.64 400.077 376.97C398.267 361.791 407.957 347.511 423.106 343.021C438.806 338.361 462.475 335.361 494.034 342.141C481.164 364.311 464.405 384.15 444.556 400.63H493.704C506.863 385.88 518.283 369.651 527.653 352.261C528.873 352.731 530.113 353.211 531.353 353.711C559.512 364.981 587.401 382 608.83 400.63H616.94V363.171L616.96 363.161Z" fill="black" fill-opacity="0.3"/>
<path d="M360.838 15.7095C366.098 10.7496 373.258 8.3797 380.477 9.20968C387.687 10.0397 394.097 13.9796 398.077 19.9994C401.137 24.6293 404.437 28.6992 408.186 32.4491C412.516 36.779 418.276 39.029 424.406 38.789C430.476 38.549 435.966 35.899 439.885 31.3191C442.165 28.6492 444.115 25.8393 445.665 22.9693C449.035 16.7595 454.885 12.2396 461.725 10.5696C468.515 8.91968 475.734 10.2097 481.524 14.1296C491.224 20.6894 499.314 24.8493 507.763 27.5992C513.963 29.6192 520.763 27.3192 524.303 21.9994C528.173 16.1895 531.142 9.21968 533.342 0.629883H559.732C556.752 14.9595 552.202 26.4793 545.732 36.189C535.812 51.0887 516.893 57.5785 499.744 51.9787C486.334 47.5988 475.734 41.1689 467.885 35.909C465.555 40.0889 462.725 44.1388 459.465 47.9488C450.965 57.9085 438.546 63.9084 425.406 64.4184C412.216 64.9383 399.277 59.8785 389.957 50.5487C385.387 45.9788 381.177 40.8789 377.428 35.3591C358.948 52.2886 336.559 60.6385 335.599 60.9884L323.549 65.4183L314.64 41.3989L326.669 36.919C326.859 36.849 346.108 29.5892 360.848 15.6895L360.838 15.7095Z" fill="black" fill-opacity="0.3"/>
<path d="M158.404 400.62C161.604 395.331 164.744 389.371 167.324 382.921C173.104 386.271 179.114 389.061 185.214 391.211C197.663 395.591 211.513 394.571 223.192 388.411C234.822 382.271 243.402 371.501 246.742 358.861C248.022 354.022 248.811 349.152 249.101 344.372C258.471 345.732 270.821 346.952 284.8 345.112C302.7 342.752 316.919 328.742 319.399 311.033C321.509 295.923 319.339 279.463 312.549 259.244L308.47 247.074L284.06 255.214L288.14 267.384C293.62 283.703 295.45 296.453 293.9 307.493C293.02 313.813 287.88 318.832 281.42 319.682C272.611 320.842 263.511 320.592 251.921 318.862C244.992 317.832 237.932 319.772 232.532 324.192C227.092 328.652 223.772 335.252 223.442 342.302C223.282 345.552 222.752 348.922 221.852 352.322C220.312 358.141 216.513 362.901 211.143 365.731C205.723 368.591 199.553 369.051 193.773 367.011C188.763 365.251 184.024 363.001 179.254 360.151C173.054 356.442 165.564 355.662 158.704 358.022C151.835 360.381 146.415 365.611 143.825 372.351C139.245 384.291 131.905 394.591 127.075 400.61H158.384L158.404 400.62Z" fill="black" fill-opacity="0.3"/>
<path d="M219.683 126.277L208.193 132.056C207.273 132.516 185.984 143.366 169.564 162.276C165.204 157.226 160.445 152.636 155.385 148.616C145.055 140.406 131.645 136.856 118.576 138.866C105.576 140.866 93.9267 148.246 86.6169 159.106C83.817 163.266 81.4671 167.606 79.6272 172.025C71.2274 167.686 59.9578 162.506 46.1382 159.676C28.4488 156.066 10.4094 164.666 2.25966 180.585C1.80968 181.455 1.38971 182.345 0.969727 183.245V244.684L17.3192 244.854L17.4592 232.024C17.6392 214.814 20.0991 202.175 25.1789 192.245C28.0888 186.555 34.5886 183.495 40.9684 184.805C49.6782 186.585 58.1879 189.795 68.5775 195.205C74.7773 198.435 82.0971 198.915 88.6569 196.495C95.2667 194.055 100.566 188.905 103.196 182.345C104.406 179.325 106.026 176.315 107.986 173.395C111.346 168.396 116.506 165.136 122.506 164.216C128.566 163.276 134.545 164.866 139.335 168.665C143.485 171.965 147.235 175.635 150.805 179.885C155.445 185.415 162.264 188.595 169.514 188.605H169.544C176.804 188.605 183.624 185.435 188.284 179.915C201.253 164.526 219.603 155.036 219.783 154.946L231.272 149.166L219.673 126.267L219.683 126.277Z" fill="black" fill-opacity="0.3"/>
<path d="M170.904 0.629883H140.205C142.135 2.97983 143.925 5.40977 145.525 7.95971C153.485 20.6594 155.445 34.1491 151.685 50.4287C149.205 61.1584 143.425 79.388 132.525 80.918C125.336 81.9179 114.616 76.8781 103.116 67.0683C92.4467 57.9785 83.7471 46.9988 81.2171 42.4489C72.8074 27.2792 51.8281 28.2992 29.6188 29.3592C22.399 29.7092 10.0094 30.3092 3.88962 29.1992C6.18955 25.1793 12.8293 16.3495 31.8687 1.09987C32.0687 0.939875 32.2687 0.779879 32.4587 0.629883H1.23969V54.6886C1.57967 54.7486 1.92971 54.8086 2.2897 54.8486C10.8094 55.9486 21.0091 55.4586 30.8687 54.9886C39.3085 54.5786 54.748 53.8386 59.2678 55.8486C67.5076 69.6982 102.446 111.037 136.105 106.327C156.045 103.537 169.724 86.6678 176.764 56.1885C181.484 35.729 179.564 17.4895 170.904 0.639883V0.629883Z" fill="black" fill-opacity="0.3"/>
<path d="M616.96 172.786C609.18 162.576 603.51 151.697 602 147.147C596.53 130.697 575.731 127.837 553.712 124.807C546.552 123.827 534.262 122.137 528.453 119.917C531.452 116.388 539.622 108.928 561.142 97.438C578.411 88.2183 595.13 81.2884 595.3 81.2184L607.19 76.3085L597.35 52.6091L585.461 57.509C584.651 57.849 565.291 65.8588 545.712 76.5985C514.363 93.7881 500.633 107.858 501.193 122.217C501.483 129.527 505.353 139.397 522.143 144.837C530.313 147.487 540.422 148.877 550.202 150.217C558.572 151.367 573.881 153.467 577.951 156.277C581.901 167.046 596.58 193.996 616.97 209.185V172.786H616.96Z" fill="black" fill-opacity="0.3"/>
</svg>
