<svg width="55" height="55" viewBox="0 0 55 55" fill="none" xmlns="http://www.w3.org/2000/svg">
<g clip-path="url(#clip0_1049_1332)">
<rect width="55" height="55" rx="4" fill="#9C9A9A"/>
<path d="M11.5206 50.0405L6.43248 49.5813L6.65592 46.9752C7.13473 41.4086 9.19296 34.8216 12.1616 29.3545C12.2216 29.2446 12.2829 29.1334 12.3442 29.0222C6.5308 25.5017 1.9368 20.4872 -0.961576 14.4902L-2.09411 12.1458L2.48328 9.82366L3.61582 12.168C6.10561 17.3212 10.088 21.628 15.1404 24.6369C17.7821 21.0327 21.4159 17.422 26.1861 15.4007C30.6639 13.5038 35.7635 15.1299 38.3108 19.2679C40.0626 22.112 40.3805 25.2845 39.2569 28.6977C38.1384 32.0966 35.0243 34.3807 31.5079 34.3807H31.5054C26.4862 34.3807 21.5181 33.3499 16.9152 31.3731C16.8143 31.551 16.7185 31.7263 16.624 31.9003C13.9861 36.7565 12.1616 42.5638 11.7428 47.4344L11.5193 50.0405H11.5206ZM19.8569 26.9421C23.5623 28.3929 27.5166 29.1465 31.5079 29.1465H31.5105C32.8333 29.1465 34.0015 28.2935 34.4203 27.0232C35.046 25.1236 34.9106 23.5459 33.9939 22.0571C32.7758 20.079 30.3141 19.3124 28.1397 20.2334C24.7165 21.6829 21.9714 24.2458 19.8569 26.9408V26.9421Z" fill="#CDCDCD"/>
<path d="M-8.71701 0H-14.289C-13.6072 1.01127 -13.3097 2.2685 -13.5319 3.53488C-13.8358 5.267 -14.7755 6.52422 -16.4877 7.49363C-17.633 8.14122 -19.058 7.96329 -20.0334 7.04883C-20.3616 6.74139 -20.6846 6.42611 -21 6.10428V12.5081C-20.0271 12.9098 -18.9916 13.1139 -17.9522 13.1139C-16.6065 13.1139 -15.2518 12.7724 -14.0184 12.0738C-10.9412 10.3325 -9.08729 7.77098 -8.50634 4.46112C-8.2382 2.93439 -8.3263 1.41552 -8.71701 0Z" fill="#CDCDCD"/>
<path d="M55 2.61649V0H43.0694C43.3298 0.417331 43.5814 0.841201 43.824 1.27031C39.1266 2.30774 35.6038 1.84724 33.2672 1.13425C32.5165 0.905306 31.8551 0.511524 31.3188 0H25.3203C26.3788 2.88207 28.723 5.20943 31.8117 6.15137C36.7593 7.65847 41.8002 7.19666 46.0686 6.10035C48.1447 11.697 48.5916 17.6129 47.3608 23.2214L46.8002 25.7751L51.7824 26.9224L52.3429 24.37C53.7768 17.8406 53.289 10.9814 50.9358 4.49644C51.052 4.44934 51.1682 4.40225 51.2819 4.35515C52.5293 3.84232 53.7742 3.25884 55 2.61649Z" fill="#CDCDCD"/>
<path d="M51.517 48.0702C50.041 45.7913 47.2256 44.7996 44.672 45.6552C42.6763 46.325 41.0982 47.3088 39.9299 48.1147C39.5826 47.475 39.1613 46.8562 38.6761 46.2727C37.4107 44.7499 35.5632 43.8315 33.6058 43.753C31.6421 43.6732 29.7179 44.4477 28.33 45.8737C27.6495 46.5736 27.0238 47.3546 26.4646 48.1971C23.7156 45.6081 20.3818 44.3313 20.2388 44.2763L18.4449 43.5986L17.1183 47.2735L18.9096 47.9577C18.939 47.9682 21.8029 49.0789 23.9965 51.2048C24.7792 51.9649 25.8453 52.3273 26.9191 52.1991C27.9929 52.0708 28.9467 51.4704 29.5392 50.5494C29.9937 49.8416 30.4853 49.2176 31.0432 48.6446C31.6868 47.9826 32.5448 47.6372 33.4564 47.6751C34.3591 47.7105 35.1776 48.116 35.7598 48.8172C36.1007 49.2267 36.3893 49.6558 36.6204 50.0941C37.1222 51.0452 37.993 51.7359 39.0119 51.991C40.0218 52.2448 41.0969 52.046 41.9588 51.4468C43.4028 50.4434 44.6069 49.8076 45.8645 49.385C46.7864 49.0763 47.7989 49.4282 48.3262 50.2419C49.1051 51.4442 49.6388 52.9748 49.9785 55H53.8587C53.4399 52.0944 52.6891 49.8808 51.517 48.0702Z" fill="#CDCDCD"/>
<path d="M17.828 6.0284C17.4603 3.31902 15.342 1.1748 12.6786 0.815037C10.5974 0.533764 8.75876 0.719535 7.36448 0.927546C7.3466 0.620108 7.31596 0.311363 7.26999 0H3.37825C3.47146 0.421255 3.52636 0.838585 3.54551 1.24414C3.59531 2.32344 4.08816 3.33341 4.89894 4.01501C5.70333 4.69137 6.75543 4.98834 7.78583 4.83135C9.51208 4.56709 10.8655 4.52784 12.1768 4.70576C13.1395 4.83528 13.9031 5.60191 14.0346 6.57001C14.2644 8.25896 13.9912 10.2082 13.1766 12.7057L12.5688 14.566L16.2013 15.8115L16.8091 13.9498C17.8191 10.8571 18.1421 8.34007 17.828 6.0284Z" fill="#CDCDCD"/>
<path d="M4.71256 30.7869L2.98503 34.2904L1.27537 33.4061C1.14003 33.3354 -2.03031 31.6766 -4.47414 28.7827C-5.12276 29.5546 -5.8314 30.2571 -6.58472 30.872C-8.12201 32.1279 -10.119 32.6721 -12.0635 32.3634C-13.9979 32.0573 -15.7318 30.9282 -16.8197 29.2668C-17.2359 28.631 -17.5858 27.9664 -17.859 27.2913C-18.7132 27.744 -19.7653 28.2568 -21 28.6728V24.476C-20.5263 24.268 -20.0322 24.0246 -19.5048 23.7434C-18.5817 23.2488 -17.4913 23.1769 -16.5158 23.5471C-15.5327 23.9187 -14.7436 24.7075 -14.3516 25.711C-14.1716 26.1741 -13.9315 26.6346 -13.6391 27.0807C-13.1386 27.8447 -12.3713 28.3431 -11.4775 28.4844C-10.5761 28.6283 -9.68484 28.3863 -8.97237 27.8028C-8.35439 27.2992 -7.79642 26.7379 -7.26527 26.0877C-6.57579 25.2413 -5.55944 24.7559 -4.48053 24.7546H-4.47542C-3.39523 24.7546 -2.37888 25.2387 -1.68685 26.0825C0.2437 28.4373 2.97609 29.8882 3.00291 29.9026L4.71256 30.7869Z" fill="#CDCDCD"/>
<path d="M-4.80459 54.4701C-4.9144 54.6507 -5.02803 54.8273 -5.1455 55H-10.2119C-9.38836 54.202 -8.63632 53.3477 -8.05281 52.39C-6.86793 50.4473 -6.57681 48.3829 -7.13606 45.8933C-7.50378 44.2514 -8.36564 41.4623 -9.9872 41.2294C-11.0559 41.0763 -12.6519 41.8469 -14.3641 43.3474C-15.9525 44.7381 -17.2472 46.4166 -17.6238 47.1126C-18.2967 48.3593 -19.5084 48.8918 -20.9998 49.0919V45.1057C-20.9602 45.0926 -20.9231 45.0783 -20.8912 45.0639C-19.6642 42.9445 -14.4637 36.6217 -9.45476 37.3426C-6.48616 37.7691 -4.44963 40.3502 -3.40264 45.0128C-2.61229 48.5333 -3.07067 51.6273 -4.80459 54.4701Z" fill="#CDCDCD"/>
<path d="M52.7043 34.5155C51.6381 34.666 49.8085 34.925 48.9441 35.2625C49.3909 35.8028 50.6065 36.9436 53.81 38.7019C54.2109 38.923 54.6106 39.1349 55 39.3351V43.7007C53.9837 43.2114 52.7515 42.5887 51.513 41.8901C46.8462 39.2605 44.802 37.1085 44.8863 34.9119C44.9297 33.7934 45.5056 32.285 48.0043 31.4516C49.2198 31.0461 50.7252 30.8328 52.1808 30.6274C52.9405 30.5201 54.0858 30.3592 55 30.1525V34.1584C54.2646 34.2957 53.4895 34.4043 52.7043 34.5155Z" fill="#CDCDCD"/>
</g>
<defs>
<clipPath id="clip0_1049_1332">
<rect width="55" height="55" rx="4" fill="white"/>
</clipPath>
</defs>
</svg>
