<svg width="56" height="55" viewBox="0 0 56 55" fill="none" xmlns="http://www.w3.org/2000/svg">
<g clip-path="url(#clip0_1049_1326)">
<rect x="0.666992" width="55" height="55" rx="4" fill="#9C9A9A"/>
<path d="M-2.32067 4.92411C-2.32067 4.92411 -7.78928 5.51627 -8.80393 -1.27919C-8.78188 -0.283202 -9.03978 4.20469 -15.277 4.9818C-15.277 4.9818 -15.3958 -1.0128 -9.21285 -1.45396C-10.499 -1.46753 -14.5474 -1.99013 -15.333 -7.87105C-15.333 -7.87105 -9.27902 -8.04581 -8.83956 -1.76785C-8.84975 -2.95049 -8.46119 -7.16859 -2.45132 -8C-2.45132 -8 -2.24771 -1.94601 -8.52227 -1.47601C-7.2565 -1.40984 -2.54803 -0.776956 -2.32237 4.92241L-2.32067 4.92411Z" fill="#CDCDCD"/>
<path d="M35.2453 4.92411C35.2453 4.92411 29.7767 5.51627 28.762 -1.2775C28.7841 -0.281506 28.5262 4.20639 22.2889 4.9835C22.2889 4.9835 22.1701 -1.01111 28.3531 -1.45226C27.0669 -1.46583 23.0185 -1.98843 22.2329 -7.86935C22.2329 -7.86935 28.2869 -8.04412 28.7264 -1.76616C28.7162 -2.94879 29.1047 -7.1669 35.1146 -7.9983C35.1146 -7.9983 35.3182 -1.94432 29.0437 -1.47432C30.3094 -1.40814 35.0179 -0.775259 35.2436 4.92411H35.2453Z" fill="#CDCDCD"/>
<path d="M72.8112 4.92411C72.8112 4.92411 67.3426 5.51627 66.3279 -1.2775C66.35 -0.281506 66.0921 4.20639 59.8549 4.9835C59.8549 4.9835 59.7361 -1.01111 65.919 -1.45226C64.6329 -1.46583 60.5844 -1.98843 59.7989 -7.86935C59.7989 -7.86935 65.8529 -8.04412 66.2923 -1.76616C66.2821 -2.94879 66.6707 -7.1669 72.6805 -7.9983C72.6805 -7.9983 72.8842 -1.94432 66.6096 -1.47432C67.8754 -1.40814 72.5838 -0.775259 72.8095 4.92411H72.8112Z" fill="#CDCDCD"/>
<path d="M-15.333 10.8135C-15.333 10.8135 -9.8644 10.2213 -8.84975 17.0151C-8.8718 16.0191 -8.6139 11.5312 -2.37666 10.7541C-2.37666 10.7541 -2.25789 16.7487 -8.44083 17.1899C-7.1547 17.2035 -3.10626 17.7261 -2.32067 23.607C-2.32067 23.607 -8.37466 23.7817 -8.81411 17.5038C-8.80393 18.6864 -9.19249 22.9045 -15.2024 23.7359C-15.2024 23.7359 -15.406 17.6819 -9.1314 17.2119C-10.3972 17.1458 -15.1056 16.5129 -15.3313 10.8135H-15.333Z" fill="#CDCDCD"/>
<path d="M16.4623 14.3003C16.4623 14.3003 10.9937 14.8925 9.97903 8.09872C10.0011 9.09471 9.74319 13.5826 3.50595 14.3597C3.50595 14.3597 3.38718 8.36511 9.57012 7.92395C8.28398 7.91038 4.23555 7.38778 3.44996 1.50686C3.44996 1.50686 9.50395 1.3321 9.9434 7.61006C9.93322 6.42743 10.3218 2.20932 16.3316 1.37791C16.3316 1.37791 16.5353 7.4319 10.2607 7.9019C11.5265 7.96807 16.2349 8.60095 16.4606 14.3003H16.4623Z" fill="#CDCDCD"/>
<path d="M22.2329 10.8135C22.2329 10.8135 27.7015 10.2213 28.7162 17.0151C28.6941 16.0191 28.952 11.5312 35.1893 10.7541C35.1893 10.7541 35.308 16.7487 29.1251 17.1899C30.4112 17.2035 34.4597 17.7261 35.2453 23.607C35.2453 23.607 29.1913 23.7817 28.7518 17.5038C28.762 18.6864 28.3734 22.9045 22.3636 23.7359C22.3636 23.7359 22.16 17.6819 28.4345 17.2119C27.1688 17.1458 22.4603 16.5129 22.2346 10.8135H22.2329Z" fill="#CDCDCD"/>
<path d="M54.0282 14.3003C54.0282 14.3003 48.5596 14.8925 47.545 8.09872C47.567 9.09471 47.3091 13.5826 41.0719 14.3597C41.0719 14.3597 40.9531 8.36511 47.1361 7.92395C45.8499 7.91038 41.8015 7.38778 41.0159 1.50686C41.0159 1.50686 47.0699 1.3321 47.5093 7.61006C47.4992 6.42743 47.8877 2.20932 53.8976 1.37791C53.8976 1.37791 54.1012 7.4319 47.8266 7.9019C49.0924 7.96807 53.8009 8.60095 54.0265 14.3003H54.0282Z" fill="#CDCDCD"/>
<path d="M59.7989 10.8135C59.7989 10.8135 65.2675 10.2213 66.2821 17.0151C66.2601 16.0191 66.518 11.5312 72.7552 10.7541C72.7552 10.7541 72.874 16.7487 66.691 17.1899C67.9772 17.2035 72.0256 17.7261 72.8112 23.607C72.8112 23.607 66.7572 23.7817 66.3178 17.5038C66.3279 18.6864 65.9394 22.9045 59.9295 23.7359C59.9295 23.7359 59.7259 17.6819 66.0005 17.2119C64.7347 17.1458 60.0262 16.5129 59.8006 10.8135H59.7989Z" fill="#CDCDCD"/>
<path d="M91.5942 14.3003C91.5942 14.3003 86.1256 14.8925 85.1109 8.09872C85.133 9.09471 84.8751 13.5826 78.6378 14.3597C78.6378 14.3597 78.5191 8.36511 84.702 7.92395C83.4159 7.91038 79.3674 7.38778 78.5818 1.50686C78.5818 1.50686 84.6358 1.3321 85.0753 7.61006C85.0651 6.42743 85.4536 2.20932 91.4635 1.37791C91.4635 1.37791 91.6671 7.4319 85.3926 7.9019C86.6583 7.96807 91.3668 8.60095 91.5925 14.3003H91.5942Z" fill="#CDCDCD"/>
<path d="M-2.32067 42.4324C-2.32067 42.4324 -7.78928 43.0245 -8.80393 36.2308C-8.78188 37.2267 -9.03978 41.7146 -15.277 42.4917C-15.277 42.4917 -15.3958 36.4972 -9.21285 36.056C-10.499 36.0424 -14.5474 35.5198 -15.333 29.6389C-15.333 29.6389 -9.27902 29.4641 -8.83956 35.7421C-8.84975 34.5595 -8.46119 30.3414 -2.45132 29.5099C-2.45132 29.5099 -2.24771 35.5639 -8.52227 36.0339C-7.2565 36.1001 -2.54803 36.733 -2.32237 42.4324H-2.32067Z" fill="#CDCDCD"/>
<path d="M3.44996 20.1914C3.44996 20.1914 8.91857 19.5993 9.93322 26.393C9.91117 25.397 10.1691 20.9091 16.4063 20.132C16.4063 20.132 16.5251 26.1266 10.3421 26.5678C11.6283 26.5814 15.6767 27.104 16.4623 32.9849C16.4623 32.9849 10.4083 33.1596 9.96885 26.8817C9.97903 28.0643 9.59048 32.2824 3.58061 33.1138C3.58061 33.1138 3.377 27.0598 9.65156 26.5898C8.38579 26.5237 3.67732 25.8908 3.45166 20.1914H3.44996Z" fill="#CDCDCD"/>
<path d="M35.2453 42.4324C35.2453 42.4324 29.7767 43.0245 28.762 36.2308C28.7841 37.2267 28.5262 41.7146 22.2889 42.4917C22.2889 42.4917 22.1701 36.4972 28.3531 36.056C27.0669 36.0424 23.0185 35.5198 22.2329 29.6389C22.2329 29.6389 28.2869 29.4641 28.7264 35.7421C28.7162 34.5595 29.1047 30.3414 35.1146 29.5099C35.1146 29.5099 35.3182 35.5639 29.0437 36.0339C30.3094 36.1001 35.0179 36.733 35.2436 42.4324H35.2453Z" fill="#CDCDCD"/>
<path d="M41.0159 20.1914C41.0159 20.1914 46.4845 19.5993 47.4992 26.393C47.4771 25.397 47.735 20.9091 53.9722 20.132C53.9722 20.132 54.091 26.1266 47.9081 26.5678C49.1942 26.5814 53.2426 27.104 54.0282 32.9849C54.0282 32.9849 47.9742 33.1596 47.5348 26.8817C47.545 28.0643 47.1564 32.2824 41.1465 33.1138C41.1465 33.1138 40.9429 27.0598 47.2175 26.5898C45.9517 26.5237 41.2433 25.8908 41.0176 20.1914H41.0159Z" fill="#CDCDCD"/>
<path d="M72.8112 42.4324C72.8112 42.4324 67.3426 43.0245 66.3279 36.2308C66.35 37.2267 66.0921 41.7146 59.8549 42.4917C59.8549 42.4917 59.7361 36.4972 65.919 36.056C64.6329 36.0424 60.5844 35.5198 59.7989 29.6389C59.7989 29.6389 65.8529 29.4641 66.2923 35.7421C66.2821 34.5595 66.6707 30.3414 72.6805 29.5099C72.6805 29.5099 72.8842 35.5639 66.6096 36.0339C67.8754 36.1001 72.5838 36.733 72.8095 42.4324H72.8112Z" fill="#CDCDCD"/>
<path d="M78.5818 20.1914C78.5818 20.1914 84.0504 19.5993 85.0651 26.393C85.043 25.397 85.3009 20.9091 91.5382 20.132C91.5382 20.132 91.6569 26.1266 85.474 26.5678C86.7601 26.5814 90.8086 27.104 91.5942 32.9849C91.5942 32.9849 85.5402 33.1596 85.1007 26.8817C85.1109 28.0643 84.7224 32.2824 78.7125 33.1138C78.7125 33.1138 78.5089 27.0598 84.7834 26.5898C83.5177 26.5237 78.8092 25.8908 78.5835 20.1914H78.5818Z" fill="#CDCDCD"/>
<path d="M-15.333 48.3218C-15.333 48.3218 -9.8644 47.7296 -8.84975 54.5234C-8.8718 53.5274 -8.6139 49.0395 -2.37666 48.2624C-2.37666 48.2624 -2.25789 54.257 -8.44083 54.6981C-7.1547 54.7117 -3.10626 55.2343 -2.32067 61.1152C-2.32067 61.1152 -8.37466 61.29 -8.81411 55.012C-8.80393 56.1947 -9.19249 60.4128 -15.2024 61.2442C-15.2024 61.2442 -15.406 55.1902 -9.1314 54.7202C-10.3972 54.654 -15.1056 54.0211 -15.3313 48.3218H-15.333Z" fill="#CDCDCD"/>
<path d="M16.4623 51.8086C16.4623 51.8086 10.9937 52.4007 9.97903 45.607C10.0011 46.603 9.74319 51.0908 3.50595 51.868C3.50595 51.868 3.38718 45.8734 9.57012 45.4322C8.28398 45.4186 4.23555 44.896 3.44996 39.0151C3.44996 39.0151 9.50395 38.8404 9.9434 45.1183C9.93322 43.9357 10.3218 39.7176 16.3316 38.8862C16.3316 38.8862 16.5353 44.9401 10.2607 45.4101C11.5265 45.4763 16.2349 46.1092 16.4606 51.8086H16.4623Z" fill="#CDCDCD"/>
<path d="M22.2329 48.3218C22.2329 48.3218 27.7015 47.7296 28.7162 54.5234C28.6941 53.5274 28.952 49.0395 35.1893 48.2624C35.1893 48.2624 35.308 54.257 29.1251 54.6981C30.4112 54.7117 34.4597 55.2343 35.2453 61.1152C35.2453 61.1152 29.1913 61.29 28.7518 55.012C28.762 56.1947 28.3734 60.4128 22.3636 61.2442C22.3636 61.2442 22.16 55.1902 28.4345 54.7202C27.1688 54.654 22.4603 54.0211 22.2346 48.3218H22.2329Z" fill="#CDCDCD"/>
<path d="M54.0282 51.8086C54.0282 51.8086 48.5596 52.4007 47.545 45.607C47.567 46.603 47.3091 51.0908 41.0719 51.868C41.0719 51.868 40.9531 45.8734 47.1361 45.4322C45.8499 45.4186 41.8015 44.896 41.0159 39.0151C41.0159 39.0151 47.0699 38.8404 47.5093 45.1183C47.4992 43.9357 47.8877 39.7176 53.8976 38.8862C53.8976 38.8862 54.1012 44.9401 47.8266 45.4101C49.0924 45.4763 53.8009 46.1092 54.0265 51.8086H54.0282Z" fill="#CDCDCD"/>
<path d="M59.7989 48.3218C59.7989 48.3218 65.2675 47.7296 66.2821 54.5234C66.2601 53.5274 66.518 49.0395 72.7552 48.2624C72.7552 48.2624 72.874 54.257 66.691 54.6981C67.9772 54.7117 72.0256 55.2343 72.8112 61.1152C72.8112 61.1152 66.7572 61.29 66.3178 55.012C66.3279 56.1947 65.9394 60.4128 59.9295 61.2442C59.9295 61.2442 59.7259 55.1902 66.0005 54.7202C64.7347 54.654 60.0262 54.0211 59.8006 48.3218H59.7989Z" fill="#CDCDCD"/>
<path d="M91.5942 51.8086C91.5942 51.8086 86.1256 52.4007 85.1109 45.607C85.133 46.603 84.8751 51.0908 78.6378 51.868C78.6378 51.868 78.5191 45.8734 84.702 45.4322C83.4159 45.4186 79.3674 44.896 78.5818 39.0151C78.5818 39.0151 84.6358 38.8404 85.0753 45.1183C85.0651 43.9357 85.4536 39.7176 91.4635 38.8862C91.4635 38.8862 91.6671 44.9401 85.3926 45.4101C86.6583 45.4763 91.3668 46.1092 91.5925 51.8086H91.5942Z" fill="#CDCDCD"/>
<path d="M-2.32067 79.9406C-2.32067 79.9406 -7.78928 80.5328 -8.80393 73.739C-8.78188 74.735 -9.03978 79.2229 -15.277 80C-15.277 80 -15.3958 74.0054 -9.21285 73.5642C-10.499 73.5507 -14.5474 73.0281 -15.333 67.1472C-15.333 67.1472 -9.27902 66.9724 -8.83956 73.2504C-8.84975 72.0677 -8.46119 67.8496 -2.45132 67.0182C-2.45132 67.0182 -2.24771 73.0722 -8.52227 73.5422C-7.2565 73.6084 -2.54803 74.2412 -2.32237 79.9406H-2.32067Z" fill="#CDCDCD"/>
<path d="M3.44996 57.6997C3.44996 57.6997 8.91857 57.1075 9.93322 63.9013C9.91117 62.9053 10.1691 58.4174 16.4063 57.6403C16.4063 57.6403 16.5251 63.6349 10.3421 64.076C11.6283 64.0896 15.6767 64.6122 16.4623 70.4931C16.4623 70.4931 10.4083 70.6679 9.96885 64.3899C9.97903 65.5726 9.59048 69.7907 3.58061 70.6221C3.58061 70.6221 3.377 64.5681 9.65156 64.0981C8.38579 64.0319 3.67732 63.399 3.45166 57.6997H3.44996Z" fill="#CDCDCD"/>
<path d="M35.2453 79.9406C35.2453 79.9406 29.7767 80.5328 28.762 73.739C28.7841 74.735 28.5262 79.2229 22.2889 80C22.2889 80 22.1701 74.0054 28.3531 73.5642C27.0669 73.5507 23.0185 73.0281 22.2329 67.1472C22.2329 67.1472 28.2869 66.9724 28.7264 73.2504C28.7162 72.0677 29.1047 67.8496 35.1146 67.0182C35.1146 67.0182 35.3182 73.0722 29.0437 73.5422C30.3094 73.6084 35.0179 74.2412 35.2436 79.9406H35.2453Z" fill="#CDCDCD"/>
<path d="M41.0159 57.6997C41.0159 57.6997 46.4845 57.1075 47.4992 63.9013C47.4771 62.9053 47.735 58.4174 53.9722 57.6403C53.9722 57.6403 54.091 63.6349 47.9081 64.076C49.1942 64.0896 53.2426 64.6122 54.0282 70.4931C54.0282 70.4931 47.9742 70.6679 47.5348 64.3899C47.545 65.5726 47.1564 69.7907 41.1465 70.6221C41.1465 70.6221 40.9429 64.5681 47.2175 64.0981C45.9517 64.0319 41.2433 63.399 41.0176 57.6997H41.0159Z" fill="#CDCDCD"/>
<path d="M72.8112 79.9406C72.8112 79.9406 67.3426 80.5328 66.3279 73.739C66.35 74.735 66.0921 79.2229 59.8549 80C59.8549 80 59.7361 74.0054 65.919 73.5642C64.6329 73.5507 60.5844 73.0281 59.7989 67.1472C59.7989 67.1472 65.8529 66.9724 66.2923 73.2504C66.2821 72.0677 66.6707 67.8496 72.6805 67.0182C72.6805 67.0182 72.8842 73.0722 66.6096 73.5422C67.8754 73.6084 72.5838 74.2412 72.8095 79.9406H72.8112Z" fill="#CDCDCD"/>
<path d="M78.5818 57.6997C78.5818 57.6997 84.0504 57.1075 85.0651 63.9013C85.043 62.9053 85.3009 58.4174 91.5382 57.6403C91.5382 57.6403 91.6569 63.6349 85.474 64.076C86.7601 64.0896 90.8086 64.6122 91.5942 70.4931C91.5942 70.4931 85.5402 70.6679 85.1007 64.3899C85.1109 65.5726 84.7224 69.7907 78.7125 70.6221C78.7125 70.6221 78.5089 64.5681 84.7834 64.0981C83.5177 64.0319 78.8092 63.399 78.5835 57.6997H78.5818Z" fill="#CDCDCD"/>
</g>
<defs>
<clipPath id="clip0_1049_1326">
<rect x="0.666992" width="55" height="55" rx="4" fill="white"/>
</clipPath>
</defs>
</svg>
