<svg width="616" height="400" viewBox="0 0 616 400" fill="none" xmlns="http://www.w3.org/2000/svg">
<path d="M349.297 389.971C355.497 392.861 361.417 396.291 367.156 399.97H368.996C362.837 395.961 356.467 392.221 349.757 389.101C342.038 385.512 338.718 377.762 339.848 366.084C340.628 358.204 345.048 351.265 351.977 347.046C360.107 342.096 371.046 339.376 382.235 339.376C384.595 339.376 386.975 339.496 389.355 339.746C397.344 340.576 405.164 343.756 412.703 346.826C419.013 349.385 425.532 352.035 432.222 353.385C448.931 356.735 462.77 355.985 474.539 351.105C479.449 349.075 484.359 346.186 489.568 343.146C499.588 337.266 509.957 331.167 520.536 331.347C531.336 331.507 542.085 335.887 547.895 342.496C552.294 347.515 553.884 353.485 552.594 360.264C551.334 366.924 547.775 373.193 544.245 379.032C539.605 386.712 536.975 393.641 536.325 399.98H537.385C538.045 393.811 540.615 387.042 545.155 379.522C548.724 373.603 552.334 367.254 553.614 360.444C554.934 353.475 553.234 347.056 548.694 341.886C542.695 335.057 531.656 330.527 520.556 330.367C520.406 330.367 520.276 330.367 520.136 330.367C509.397 330.367 499.028 336.447 489.008 342.326C483.839 345.356 478.959 348.215 474.119 350.225C462.55 355.015 448.931 355.735 432.442 352.435C425.862 351.115 419.383 348.485 413.123 345.936C405.494 342.846 397.614 339.636 389.465 338.776C375.676 337.336 361.457 340.116 351.407 346.226C344.198 350.615 339.608 357.814 338.808 366.004C337.618 378.122 341.138 386.192 349.287 389.981L349.297 389.971Z" fill="black" fill-opacity="0.3"/>
<path d="M374.626 384.541C378.746 387.061 383.195 389.121 387.495 391.11C389.335 391.96 391.175 392.81 392.995 393.69C397.264 395.77 401.624 397.86 406.074 399.969H408.404C403.304 397.57 398.344 395.19 393.475 392.82C391.655 391.94 389.805 391.08 387.955 390.23C383.685 388.261 379.255 386.211 375.196 383.721C369.546 380.241 363.007 375.442 362.497 369.063C362.077 363.823 366.836 359.354 371.026 357.134C373.616 355.764 375.956 355.264 378.436 355.264C380.445 355.264 382.555 355.584 384.955 356.024C394.305 357.684 402.144 359.853 408.914 362.663C411.813 363.873 414.563 365.503 417.233 367.083C420.823 369.213 424.543 371.412 428.732 372.642C433.332 373.992 438.502 374.592 445.481 374.602H445.581C461.41 374.602 476.029 372.382 489.038 368.023C490.078 367.673 491.148 367.283 492.248 366.893L493.488 366.453C500.218 364.073 506.737 362.133 512.507 364.533C518.986 367.213 517.806 375.442 516.527 380.101C514.527 387.401 513.157 394.1 512.207 399.979H513.257C514.197 394.17 515.547 387.561 517.536 380.351C519.886 371.782 518.246 365.843 512.927 363.633C506.797 361.093 500.058 363.083 493.118 365.543L491.878 365.983C490.788 366.363 489.718 366.753 488.678 367.093C475.789 371.422 461.28 373.622 445.581 373.622H445.481C438.602 373.622 433.542 373.022 429.042 371.712C424.983 370.512 421.323 368.353 417.793 366.253C415.093 364.663 412.303 363.003 409.334 361.773C402.504 358.934 394.595 356.734 385.155 355.064C379.746 354.094 375.526 353.624 370.516 356.284C366.056 358.654 361.007 363.433 361.457 369.133C361.987 375.942 368.766 380.951 374.626 384.541Z" fill="black" fill-opacity="0.3"/>
<path d="M375.206 383.721C379.256 386.211 383.685 388.26 387.965 390.23C389.815 391.08 391.665 391.94 393.485 392.82C398.344 395.19 403.304 397.57 408.414 399.969H512.237C513.177 394.09 514.547 387.391 516.557 380.091C517.827 375.432 519.016 367.203 512.537 364.523C506.767 362.123 500.248 364.073 493.518 366.443L492.278 366.883C491.178 367.273 490.118 367.663 489.068 368.013C476.059 372.372 461.44 374.592 445.611 374.592H445.511C438.532 374.592 433.362 373.982 428.762 372.632C424.573 371.402 420.853 369.202 417.263 367.073C414.603 365.493 411.853 363.863 408.944 362.653C402.174 359.843 394.335 357.674 384.985 356.014C382.585 355.584 380.475 355.254 378.466 355.254C375.986 355.254 373.646 355.744 371.056 357.124C366.866 359.343 362.117 363.813 362.527 369.052C363.027 375.432 369.566 380.231 375.226 383.711L375.206 383.721Z" fill="black" fill-opacity="0.3"/>
<path d="M600.211 163.014C594.551 167.483 588.452 171.383 582.112 174.633C571.153 180.252 561.563 183.362 552.794 184.142C552.004 184.212 551.214 184.252 550.454 184.252C545.815 184.252 541.575 183.042 537.125 181.792L536.175 181.522C526.636 178.842 517.096 175.453 511.937 168.903C507.157 162.834 510.207 157.035 513.147 151.425L513.927 149.925C515.057 147.705 516.216 145.496 517.376 143.286C520.226 137.856 523.166 132.247 525.736 126.588C526.226 125.488 526.756 124.398 527.296 123.308C529.156 119.468 531.076 115.509 531.555 111.299C531.965 107.689 531.125 104.06 530.326 100.56C529.996 99.1003 529.646 97.6005 529.396 96.1006C528.276 89.5313 528.176 82.572 529.096 75.4327C530.156 67.1535 531.875 57.8245 538.865 51.875C542.855 48.4754 547.694 46.1956 552.364 43.9758C555.314 42.586 558.354 41.1361 561.134 39.4363L561.284 39.3363C565.323 36.8765 569.143 34.5468 572.153 31.0271C572.883 30.1772 573.583 29.2373 573.743 28.1974C573.993 26.4476 572.643 24.7678 571.623 23.6579C565.733 17.3385 563.233 8.52938 564.383 -0.00976562H528.096C529.736 3.12992 531.765 6.06963 534.225 8.70936C535.935 10.5492 538.165 13.3489 537.715 16.4786C537.445 18.3384 536.285 19.9082 535.075 21.3181C530.425 26.7376 524.626 30.2772 518.486 34.0268L518.256 34.1768C514.037 36.7466 509.437 38.9263 504.997 41.0361C498.068 44.3258 490.898 47.7255 485.048 52.695C474.889 61.3341 472.379 75.0527 470.819 87.2515C469.459 97.8504 469.62 108.169 471.269 117.898C471.649 120.098 472.159 122.348 472.659 124.518C473.879 129.857 475.159 135.397 474.519 140.996C473.779 147.505 470.849 153.545 468.02 159.374C467.25 160.974 466.44 162.634 465.7 164.254C461.84 172.773 457.41 181.202 453.141 189.351C451.411 192.661 449.671 195.971 447.971 199.28C447.581 200.04 447.191 200.79 446.791 201.55C442.361 209.999 438.182 217.988 444.871 226.478C452.361 236.007 466.44 240.986 480.529 244.956L481.939 245.346C489.598 247.515 496.838 249.565 504.937 248.835C517.916 247.675 532.125 243.066 548.384 234.727C557.824 229.897 566.873 224.078 575.313 217.438C576.693 216.349 578.032 215.269 579.352 214.209C587.472 207.719 595.131 201.59 605.501 197.29C608.96 195.861 612.46 194.551 616 193.341V151.685C611.18 154.275 607.151 157.484 602.941 160.854C602.051 161.564 601.151 162.274 600.231 163.004L600.211 163.014Z" fill="black" fill-opacity="0.3"/>
<path d="M21.0386 187.402C43.9771 187.972 62.266 191.331 76.975 197.681C86.2744 201.69 92.714 208.13 99.5135 214.959L100.753 216.209C113.283 228.737 125.122 242.356 126.872 257.165C128.482 270.743 118.032 277.273 107.923 283.612C107.013 284.182 106.103 284.752 105.193 285.332C101.203 287.872 97.1837 290.401 93.154 292.911C83.2746 299.09 73.0453 305.49 63.3659 312.289C61.506 313.609 59.5661 314.899 57.6862 316.159C50.9167 320.678 43.9071 325.348 38.9675 331.697C34.7177 337.157 32.4679 343.696 30.288 350.015C29.3881 352.615 28.4582 355.315 27.4082 357.895C22.7385 369.313 16.069 380.452 7.59951 391.021C5.21966 394.001 2.69982 397.041 0.0299981 399.99H80.6148C82.1147 398.211 83.5846 396.431 85.0045 394.671C94.6739 382.602 102.263 369.893 107.593 356.885C108.793 353.935 109.863 350.855 110.883 347.886C113.413 340.556 116.022 332.967 121.022 326.568C126.802 319.138 134.911 313.729 142.751 308.489C144.911 307.06 147.14 305.56 149.27 304.07C160.41 296.241 172.159 288.881 183.518 281.782C188.048 278.942 192.747 276.013 197.327 273.093C198.367 272.423 199.417 271.763 200.477 271.113C212.316 263.704 223.505 256.695 221.726 241.756C219.756 225.058 206.297 209.579 192.038 195.341L190.618 193.921C182.878 186.162 175.559 178.832 165.089 174.323C148.33 167.084 127.462 163.274 101.303 162.624C86.1044 162.244 70.6454 163.324 55.3264 165.824C52.8266 166.234 50.3767 166.654 47.9469 167.074C33.1578 169.593 19.1888 171.993 3.30978 170.333C2.20986 170.213 1.09993 170.103 0 169.963V187.982C7.03954 187.452 14.0691 187.272 21.0286 187.442L21.0386 187.402Z" fill="black" fill-opacity="0.3"/>
<path d="M53.2763 270.224C51.8864 258.525 42.437 247.656 32.4277 237.657L31.4277 236.647C25.9981 231.197 20.8584 226.058 13.5189 222.888C9.37916 221.118 4.88945 219.629 0.00976499 218.429V315.559C0.799714 315.029 1.57966 314.489 2.34961 313.949C10.1991 308.43 18.4686 303.26 26.468 298.251C29.7178 296.231 32.9576 294.201 36.1774 292.141C36.9174 291.671 37.6473 291.211 38.3973 290.751C46.6967 285.562 54.5162 280.652 53.2863 270.224H53.2763Z" fill="black" fill-opacity="0.3"/>
<path d="M369.846 0.00976367H330.878C323.739 43.8254 311.919 67.663 295.671 70.9427C293.971 71.2826 292.331 71.4426 290.731 71.4426C281.331 71.4426 273.382 65.8732 263.703 59.0938C251.463 50.5147 236.234 39.8458 211.906 36.9961C193.227 34.8163 178.798 36.9961 167.189 38.7559C153.28 40.8657 143.24 42.3755 133.871 35.6762C130.261 33.0865 128.321 28.4869 125.862 22.6675C123.172 16.3081 119.862 8.46892 113.132 0.00976367H60.0359C64.9555 1.47962 70.2952 2.01956 76.1248 1.05966C83.2344 -0.120223 91.8638 3.47942 98.1034 10.2287C105.183 17.878 107.493 27.377 104.423 36.2761C103.523 38.8959 100.803 41.1956 96.3435 43.1055C88.484 46.4951 76.4648 48.1349 66.2855 48.1349C59.7059 48.1349 53.9063 47.445 50.5065 46.1052C30.3978 38.1559 13.1389 21.2276 8.54921 4.92927C8.07924 3.26944 7.75926 1.6296 7.55927 0.00976367H0.00976562V46.2751C3.17956 50.7047 6.78932 54.5443 10.8391 57.784C24.4982 68.7129 43.047 72.4925 65.9855 69.0029C137.121 58.2139 182.988 57.354 219.335 66.1132C260.183 75.9622 289.341 98.8299 311.11 138.106C316.389 147.635 328.468 157.254 335.028 154.894C338.218 153.744 342.687 148.575 336.748 126.827C326.029 87.561 330.898 52.3145 351.207 22.0476C356.947 13.4984 363.406 6.17915 369.836 0.00976367H369.846Z" fill="black" fill-opacity="0.3"/>
<path d="M329.978 0.00976367C322.899 43.3554 311.329 66.9131 295.47 70.1028C284.171 72.3825 275.382 66.2031 264.242 58.4039C251.913 49.7748 236.574 39.0259 212.026 36.1562C193.217 33.9564 178.708 36.1562 167.059 37.926C153.37 39.9858 143.48 41.4856 134.421 34.9963C131.011 32.5565 129.111 28.057 126.711 22.3575C124.062 16.0682 120.792 8.35893 114.292 0.00976367H113.142C119.872 8.46892 123.182 16.3081 125.871 22.6675C128.341 28.4869 130.281 33.0865 133.881 35.6762C143.25 42.3755 153.29 40.8657 167.199 38.7559C178.808 36.9961 193.237 34.8163 211.916 36.9961C236.244 39.8458 251.473 50.5147 263.713 59.0939C273.402 65.8732 281.341 71.4426 290.741 71.4426C292.341 71.4426 293.981 71.2826 295.68 70.9427C311.929 67.663 323.749 43.8254 330.888 0.00976367H329.978Z" fill="black" fill-opacity="0.3"/>
<path d="M287.561 399.971C288.341 393.832 289.601 387.892 290.821 382.203C294.231 366.314 297.441 351.316 288.941 337.997C285.871 333.198 279.842 333.678 275.312 334.938C258.553 339.577 231.115 364.195 217.396 399.961H287.561V399.971Z" fill="black" fill-opacity="0.3"/>
<path d="M217.396 399.971C231.115 364.194 258.553 339.587 275.312 334.947C279.832 333.687 285.861 333.207 288.941 338.007C297.451 351.315 294.231 366.314 290.821 382.212C289.601 387.902 288.341 393.841 287.561 399.981H288.441C289.221 394.031 290.461 388.172 291.701 382.382C295.151 366.334 298.401 351.165 289.701 337.577C287.081 333.477 281.872 332.247 275.052 334.137C261.503 337.887 244.414 352.415 231.525 371.133C225.285 380.183 220.246 389.912 216.456 399.981H217.386L217.396 399.971Z" fill="black" fill-opacity="0.3"/>
<path d="M117.592 135.627C129.722 134.027 142.261 132.367 154.57 131.037C178.348 128.467 204.347 132.617 227.755 142.716C242.104 148.895 268.293 174.663 273.402 179.772C288.131 194.501 299.621 217.798 301.99 237.766C303.65 251.765 296.071 254.875 286.461 258.814C282.672 260.374 278.372 262.144 274.212 264.794C268.193 268.623 261.923 272.503 255.283 276.613C241.704 285.012 227.635 293.711 215.526 302.23C212.876 304.09 210.146 305.89 207.517 307.629C198.597 313.509 190.158 319.078 183.738 327.318C176.539 336.567 166.349 351.715 161.34 363.984C159.15 369.343 157.46 375.193 155.84 380.852C153.99 387.292 152.1 393.861 149.39 399.98H183.098C186.818 385.822 192.487 372.403 200.127 359.874C209.666 344.236 244.724 293.151 295.491 292.451C314.49 292.171 350.777 296.781 352.697 309.039C353.607 314.909 347.527 320.178 340.498 326.288C335.668 330.477 330.199 335.217 326.729 340.606C316.879 355.925 317.129 375.533 327.589 399.98H367.166C361.427 396.301 355.507 392.871 349.307 389.981C341.158 386.192 337.638 378.122 338.828 366.004C339.628 357.814 344.218 350.615 351.427 346.226C361.467 340.116 375.686 337.336 389.485 338.776C397.634 339.626 405.514 342.836 413.143 345.936C419.403 348.485 425.882 351.115 432.462 352.435C448.951 355.735 462.57 355.015 474.139 350.225C478.979 348.215 483.859 345.356 489.028 342.326C499.048 336.447 509.417 330.367 520.156 330.367C520.296 330.367 520.426 330.367 520.576 330.367C531.675 330.527 542.715 335.047 548.714 341.886C553.264 347.056 554.954 353.475 553.634 360.444C552.344 367.254 548.744 373.603 545.175 379.522C540.635 387.032 538.055 393.801 537.405 399.98H576.633C576.852 398.59 577.143 397.22 577.562 395.891C580.452 386.472 587.162 380.982 593.641 375.663C600.211 370.273 606.421 365.194 607.141 356.585C608.22 343.746 595.801 333.867 584.842 325.168C575.173 317.469 566.043 310.209 567.673 302.08C569.763 291.691 578.292 281.752 591.082 274.803C598.681 270.673 607.121 267.923 616 266.564V239.666C612.63 240.406 609.21 241.236 605.731 242.186C596.561 244.686 587.392 247.825 578.502 251.515C564.933 257.145 554.844 265.194 544.175 273.743C542.415 275.153 540.635 276.583 538.805 278.022C527.586 286.872 515.517 294.611 502.957 301.05C481.279 312.149 462.3 318.308 444.961 319.868C443.401 320.008 441.881 320.078 440.371 320.078C431.242 320.078 422.853 317.698 414.033 315.209L412.173 314.689C393.314 309.379 374.466 302.7 364.316 289.801C355.017 278.002 360.987 266.614 366.766 255.605C367.286 254.605 367.806 253.615 368.326 252.625C370.586 248.215 372.886 243.836 375.176 239.456C380.825 228.677 386.665 217.538 391.775 206.29C392.745 204.12 393.814 201.93 394.844 199.8C398.554 192.151 402.394 184.242 403.354 175.813C404.174 168.563 402.514 161.334 400.904 154.345C400.244 151.455 399.554 148.475 399.054 145.526C396.854 132.527 396.644 118.768 398.454 104.62C400.544 88.2714 403.934 69.8532 417.693 58.1544C425.562 51.4651 435.122 46.9355 444.371 42.546C450.221 39.7663 456.27 36.9065 461.81 33.5169L462.11 33.3269C470.169 28.4074 477.769 23.7679 483.799 16.7286C485.298 14.9787 486.738 13.0689 487.048 10.8792C487.578 7.21952 484.829 3.76986 482.709 1.50009C482.269 1.02014 481.839 0.540184 481.419 0.0402343H437.062C376.706 23.8579 367.516 60.0142 361.976 81.8121C359.447 91.7311 362.196 106.86 365.366 124.368C369.326 146.196 373.816 170.943 368.426 190.701C366.316 198.42 361.637 203.12 354.887 204.29C353.757 204.49 352.587 204.57 351.367 204.57C342.808 204.57 331.968 199.83 319.709 190.671C304.15 179.062 287.281 161.234 269.552 137.696C236.715 94.0808 182.768 102.16 125.662 110.709C91.0741 115.889 55.3164 121.248 22.9785 115.049C14.2791 113.379 6.65957 108.719 0.03 102.3V139.416C34.4578 146.676 75.3051 141.266 117.612 135.667L117.592 135.627Z" fill="black" fill-opacity="0.3"/>
<path d="M184.038 399.97C187.738 385.962 193.357 372.693 200.927 360.284C205.807 352.275 216.286 336.717 231.655 322.418C252.104 303.39 273.582 293.601 295.511 293.291C317.439 293.001 350.117 298.45 351.797 309.139C352.647 314.569 346.718 319.698 339.878 325.648C335.008 329.867 329.489 334.647 325.949 340.146C315.99 355.645 316.159 375.403 326.599 399.96H327.579C317.119 375.513 316.879 355.905 326.719 340.586C330.189 335.197 335.658 330.457 340.488 326.268C347.517 320.158 353.597 314.889 352.687 309.019C350.767 296.76 314.48 292.141 295.481 292.431C244.714 293.141 209.656 344.216 200.117 359.854C192.478 372.383 186.808 385.802 183.088 399.96H184.028L184.038 399.97Z" fill="black" fill-opacity="0.3"/>
</svg>
