<svg width="56" height="55" viewBox="0 0 56 55" fill="none" xmlns="http://www.w3.org/2000/svg">
<g clip-path="url(#clip0_1049_1329)">
<rect x="0.333008" width="55" height="55" rx="4" fill="#9C9A9A"/>
<path d="M-9.00946 19.2066C-7.33085 18.9866 -5.59345 18.7585 -3.89132 18.5763C-0.620823 18.2253 2.95101 18.7922 6.17006 20.1704C8.13235 21.01 11.7439 24.5371 12.4494 25.2363C14.4705 27.2408 16.0462 30.4142 16.3725 33.1328C16.5901 34.9591 15.6332 35.3492 14.3074 35.8891C13.7767 36.1051 13.1741 36.3508 12.5876 36.722C11.7556 37.2484 10.8869 37.7816 9.96677 38.3458C8.08238 39.504 6.13331 40.6999 4.45176 41.8742C4.08723 42.128 3.70947 42.375 3.34641 42.614C2.1558 43.3942 0.921091 44.2 0.0185795 45.3527C-0.983883 46.631 -2.40526 48.7273 -3.10346 50.4254C-3.41067 51.1692 -3.64438 51.9763 -3.87074 52.7579C-4.13091 53.6569 -4.39696 54.5748 -4.7806 55.4238H-4.62332C-4.2485 54.5815 -3.98686 53.6785 -3.72963 52.793C-3.50474 52.0155 -3.2725 51.211 -2.96823 50.474C-2.27297 48.7881 -0.861883 46.7039 0.134701 45.4324C1.02545 44.2985 2.19254 43.5332 3.42872 42.7246C3.79325 42.4857 4.17101 42.2374 4.53848 41.9822C6.21562 40.8106 8.16469 39.6146 10.0462 38.4592C10.9663 37.8936 11.835 37.3604 12.6684 36.834C13.2446 36.4696 13.8399 36.2266 14.3647 36.012C15.6949 35.4707 16.7459 35.0428 16.5151 33.1179C16.1859 30.3724 14.5955 27.1679 12.5552 25.1432C11.8468 24.4413 8.21908 20.898 6.23032 20.0476C2.98775 18.6586 -0.61347 18.0876 -3.90896 18.4413C-5.61403 18.6249 -7.35143 18.853 -9.03151 19.073C-14.8934 19.8437 -20.5525 20.5875 -25.3223 19.5886V19.729C-23.6775 20.0705 -21.9268 20.2055 -20.1012 20.2055C-16.6205 20.2055 -12.8576 19.7128 -9.01093 19.2066H-9.00946Z" fill="#CDCDCD"/>
<path d="M-18.6784 23.3911C-18.3433 23.3344 -18.0023 23.2764 -17.6568 23.2197C-15.5343 22.8755 -13.3942 22.727 -11.2878 22.7797C-7.66308 22.8687 -4.77181 23.3938 -2.45086 24.3886C-1.00009 25.0096 0.0126648 26.0179 1.08568 27.0842L1.28265 27.28C3.25671 29.2386 5.12199 31.3672 5.39539 33.6633C5.64086 35.7177 4.0916 36.6815 2.45121 37.7006C2.30569 37.7911 2.16017 37.8815 2.01612 37.9733C1.38113 38.3742 0.731443 38.7778 0.102331 39.1679C-1.47045 40.1452 -3.09908 41.1562 -4.64247 42.2333C-4.93791 42.4385 -5.24659 42.6437 -5.54644 42.8408C-6.63416 43.5616 -7.75715 44.3053 -8.55677 45.3271C-9.24909 46.2072 -9.61068 47.2506 -9.96051 48.259C-10.1031 48.668 -10.2501 49.0918 -10.4162 49.4967C-11.1541 51.2853 -12.2065 53.0333 -13.5456 54.6922C-13.7411 54.9338 -13.9454 55.1795 -14.1541 55.4238H-13.9674C-13.7837 55.2065 -13.6044 54.9892 -13.4294 54.7732C-12.083 53.1048 -11.0232 51.346 -10.2809 49.5453C-10.1134 49.1377 -9.96492 48.7112 -9.82234 48.2995C-9.47545 47.3019 -9.11533 46.2693 -8.44065 45.4068C-7.65279 44.4025 -6.53862 43.6655 -5.46119 42.9514C-5.16133 42.753 -4.85119 42.5478 -4.55574 42.3413C-3.01677 41.2669 -1.38961 40.2572 0.183172 39.2799C0.810814 38.8898 1.46198 38.4862 2.09697 38.084C2.24101 37.9935 2.38653 37.9031 2.53058 37.8127C4.1357 36.8165 5.7952 35.7852 5.53944 33.6484C5.26016 31.3132 3.38018 29.163 1.38848 27.1882L1.19151 26.9925C0.10821 25.9153 -0.913361 24.8975 -2.3906 24.2658C-4.72919 23.2642 -7.63956 22.7338 -11.2849 22.6447C-13.3986 22.592 -15.5505 22.7419 -17.6818 23.0874C-18.0287 23.1441 -18.3697 23.2021 -18.7049 23.2588C-20.7436 23.6044 -22.6677 23.9297 -24.8461 23.7056C-25.0048 23.6894 -25.1621 23.6719 -25.3208 23.653V23.788C-25.168 23.8069 -25.0151 23.8231 -24.8622 23.8393C-22.6618 24.0674 -20.726 23.738 -18.6784 23.3911Z" fill="#CDCDCD"/>
<path d="M-10.4485 39.3083C-10.5764 39.3866 -10.7013 39.4648 -10.8277 39.5445C-11.3804 39.8941 -11.9375 40.2396 -12.4946 40.5852C-13.8675 41.4369 -15.2844 42.3184 -16.6294 43.2551C-16.8851 43.4347 -17.1527 43.6129 -17.4143 43.7843C-18.3624 44.412 -19.3428 45.0612 -20.041 45.9521C-20.6437 46.7202 -20.9582 47.6286 -21.2639 48.5087C-21.3889 48.865 -21.5153 49.2349 -21.6623 49.5858C-22.3032 51.1435 -23.2218 52.6648 -24.386 54.1091C-24.6814 54.4762 -24.9916 54.8502 -25.3208 55.2173V55.4238H-25.3179C-24.9475 55.0175 -24.5991 54.6004 -24.2699 54.1901C-23.0954 52.7363 -22.1723 51.2043 -21.5256 49.6344C-21.3801 49.2794 -21.2507 48.9082 -21.1258 48.5505C-20.823 47.6812 -20.5114 46.7822 -19.9234 46.0317C-19.2384 45.1584 -18.2668 44.5159 -17.3291 43.895C-17.0689 43.7222 -16.7999 43.544 -16.5412 43.3631C-15.2007 42.4277 -13.7837 41.549 -12.4138 40.6986C-11.8567 40.353 -11.2996 40.0061 -10.7469 39.6565C-10.6205 39.5769 -10.4956 39.4986 -10.3691 39.4203C-8.96834 38.5497 -7.5205 37.6507 -7.74393 35.7839C-7.98646 33.7483 -9.62685 31.8748 -11.3628 30.1524L-11.5348 29.981C-12.477 29.0428 -13.3692 28.156 -14.6568 27.6053C-16.6955 26.7319 -19.2296 26.2703 -22.4075 26.192C-23.3718 26.1691 -24.3463 26.192 -25.3208 26.2662V26.4012C-24.3463 26.3283 -23.3732 26.304 -22.4105 26.327C-19.2546 26.4039 -16.7382 26.8629 -14.7171 27.7281C-13.4544 28.268 -12.574 29.1454 -11.6406 30.0741L-11.4686 30.2442C-9.75032 31.949 -8.12609 33.8023 -7.88944 35.7987C-7.67484 37.5832 -9.02273 38.4214 -10.45 39.3083H-10.4485Z" fill="#CDCDCD"/>
<path d="M-17.7979 37.567C-17.9949 35.9188 -19.3208 34.403 -20.723 33.01L-20.8627 32.8723C-21.6255 32.1137 -22.3458 31.3956 -23.3894 30.9501C-23.9788 30.6964 -24.6212 30.4858 -25.3208 30.3198V30.4588C-24.6447 30.6235 -24.0229 30.8286 -23.4497 31.0716C-22.434 31.5076 -21.7211 32.2149 -20.9685 32.9641L-20.8289 33.1031C-19.4428 34.4786 -18.1331 35.9728 -17.9405 37.5818C-17.77 39.0153 -18.8533 39.6903 -20.0028 40.4043C-20.1057 40.4678 -20.2071 40.5312 -20.31 40.596C-20.7554 40.8781 -21.2051 41.1575 -21.6549 41.4356C-22.7618 42.124 -23.9083 42.8353 -24.996 43.5939C-25.1018 43.6682 -25.2106 43.7424 -25.3208 43.8153V43.9827C-25.1827 43.8896 -25.0445 43.7964 -24.9093 43.7019C-23.826 42.946 -22.6809 42.2347 -21.5741 41.5476C-21.1258 41.2695 -20.6745 40.9901 -20.2277 40.708C-20.1277 40.6432 -20.0248 40.5798 -19.9234 40.5163C-18.7887 39.8117 -17.6142 39.0828 -17.7965 37.567H-17.7979Z" fill="#CDCDCD"/>
<path d="M54.7627 34.8808C52.8622 35.6624 51.4585 36.7773 49.9709 37.9584C49.7284 38.1528 49.48 38.3485 49.2286 38.5456C47.6808 39.7564 46.0184 40.816 44.2854 41.6974C41.2986 43.216 38.6895 44.0569 36.3054 44.2689C34.8164 44.4025 33.4861 44.0286 32.0765 43.6331L31.8193 43.5616C29.2294 42.8394 26.6438 41.931 25.2636 40.1897C24.0289 38.632 24.8006 37.1715 25.6164 35.6259C25.6884 35.4882 25.7604 35.3519 25.8324 35.2142C26.1455 34.6095 26.4616 34.0061 26.7805 33.4041C27.5654 31.9207 28.3754 30.3859 29.0853 28.8363C29.2205 28.5407 29.3675 28.2397 29.5101 27.9481C30.0304 26.8858 30.5655 25.7884 30.7007 24.6073C30.8183 23.5895 30.5846 22.5839 30.3612 21.612C30.27 21.2165 30.176 20.8075 30.1069 20.4066C29.8026 18.6316 29.7747 16.7527 30.0246 14.8197C30.3112 12.5966 30.7742 10.0913 32.6424 8.51333C33.7184 7.60625 35.0339 6.98668 36.3069 6.38736C37.1212 6.00401 37.9634 5.60716 38.7366 5.13877L38.7792 5.11312C39.9037 4.43011 40.9679 3.78624 41.8175 2.80222C42.0394 2.5471 42.2496 2.26499 42.2981 1.93158C42.3804 1.37276 41.9747 0.866571 41.6646 0.535864C41.6308 0.499418 41.597 0.461623 41.5632 0.423828H41.375C41.4338 0.491319 41.4926 0.558811 41.5544 0.623602C41.8483 0.935412 42.229 1.4092 42.1555 1.91269C42.1114 2.2137 41.9145 2.47691 41.7057 2.71718C40.8708 3.68501 39.8169 4.32347 38.7013 4.99974L38.6587 5.02538C37.8914 5.49107 37.0536 5.88522 36.2422 6.26722C34.9604 6.87059 33.6361 7.49286 32.5469 8.41344C30.6404 10.0224 30.1715 12.5561 29.882 14.8035C29.6306 16.7486 29.6586 18.6411 29.9643 20.4282C30.0334 20.8332 30.1289 21.2435 30.2201 21.6404C30.4435 22.6015 30.6713 23.5963 30.5581 24.5925C30.4258 25.752 29.8937 26.8399 29.3793 27.8914C29.2367 28.1843 29.0882 28.4854 28.953 28.7837C28.2445 30.3306 27.4361 31.8626 26.6526 33.3447C26.3337 33.9481 26.0162 34.5501 25.7031 35.1562C25.6325 35.2925 25.5605 35.4289 25.487 35.5665C24.6859 37.081 23.8598 38.6468 25.1489 40.2693C26.5542 42.043 29.1661 42.9609 31.7781 43.6911L32.0354 43.7627C33.2568 44.1055 34.4195 44.4322 35.6851 44.4322C35.8938 44.4322 36.1055 44.4227 36.3201 44.4038C38.7233 44.1892 41.3515 43.3429 44.356 41.8162C46.0963 40.9307 47.7676 39.8657 49.3227 38.6495C49.5755 38.4511 49.8239 38.2554 50.0665 38.061C51.5437 36.8867 52.9416 35.7785 54.8215 35.005C56.0533 34.4988 57.3233 34.0669 58.5933 33.7227C59.0754 33.5917 59.5487 33.477 60.0161 33.3758V33.2381C59.5355 33.342 59.049 33.4595 58.5536 33.5931C57.2763 33.9386 56.0019 34.3719 54.7642 34.8808H54.7627Z" fill="#CDCDCD"/>
<path d="M54.9377 29.8811C54.7539 30.0268 54.5687 30.1753 54.3776 30.3252C53.2091 31.2376 51.9538 32.0381 50.6471 32.7022C48.3952 33.8482 46.4256 34.4826 44.6279 34.6419C43.5064 34.7431 42.5024 34.461 41.4412 34.1627L41.2457 34.1087C39.2937 33.5634 37.3431 32.879 36.3054 31.5684C35.3794 30.4008 35.9585 29.302 36.5714 28.1398C36.6258 28.0359 36.6817 27.9319 36.7346 27.828C36.9712 27.3717 37.2108 26.9169 37.4504 26.462C38.0428 25.3416 38.6557 24.1821 39.1908 23.0105C39.2937 22.7877 39.4054 22.5596 39.5127 22.3396C39.9051 21.5378 40.3108 20.7077 40.4137 19.8127C40.5019 19.042 40.3255 18.2807 40.1565 17.5464C40.0874 17.2481 40.0154 16.9389 39.9639 16.6366C39.7346 15.2989 39.7141 13.8802 39.9022 12.4224C40.1183 10.7459 40.4666 8.85889 41.8733 7.67104C42.6832 6.98668 43.6769 6.51964 44.6367 6.06745C45.2526 5.77724 45.889 5.47757 46.4741 5.12392L46.5064 5.10367C47.3575 4.58804 48.1615 4.10075 48.8053 3.35565C48.9729 3.16127 49.1346 2.9453 49.1713 2.69019C49.233 2.26094 48.9258 1.87489 48.6877 1.62247C48.3467 1.25937 48.0659 0.854422 47.8381 0.423828H47.6764C47.9131 0.888168 48.2144 1.32281 48.5789 1.71156C48.798 1.94508 49.0831 2.29739 49.0272 2.67129C48.9949 2.89401 48.8465 3.09108 48.6921 3.27061C48.063 3.99952 47.2678 4.4814 46.427 4.99164L46.3947 5.01054C45.817 5.36149 45.185 5.65845 44.572 5.94596C43.6034 6.40221 42.6024 6.87464 41.7763 7.5698C40.3329 8.79005 39.9772 10.7054 39.7581 12.4062C39.5685 13.8775 39.5891 15.307 39.8199 16.6582C39.8728 16.9646 39.9448 17.2737 40.0139 17.5747C40.1815 18.2996 40.3535 19.0487 40.2682 19.7992C40.1697 20.6712 39.7684 21.4906 39.3804 22.2843C39.2716 22.5043 39.1599 22.7337 39.057 22.9578C38.5249 24.1254 37.912 25.2836 37.3196 26.4026C37.08 26.8575 36.839 27.3124 36.6038 27.7699C36.5509 27.8725 36.495 27.9765 36.4421 28.0804C35.835 29.2278 35.2089 30.4143 36.1878 31.6493C37.252 32.9911 39.2275 33.6862 41.203 34.2383L41.3985 34.2923C42.3216 34.5515 43.2006 34.7985 44.159 34.7985C44.3163 34.7985 44.478 34.7917 44.6396 34.7769C46.4579 34.6149 48.4452 33.9751 50.7147 32.821C52.0302 32.1515 53.2929 31.347 54.4688 30.4277C54.6599 30.2779 54.8465 30.1308 55.0303 29.9837C56.1459 29.0982 57.1998 28.2613 58.6168 27.6782C59.0769 27.4892 59.5428 27.3151 60.0132 27.1558V27.0113C59.5237 27.1774 59.0372 27.3569 58.5595 27.554C57.1219 28.1452 56.0607 28.9888 54.9362 29.8811H54.9377Z" fill="#CDCDCD"/>
<path d="M57.7393 22.7351C56.9617 23.3439 56.1253 23.877 55.2552 24.3198C53.7544 25.0824 52.4447 25.5049 51.2483 25.6102C50.506 25.6777 49.8386 25.4901 49.1331 25.2917L49.0008 25.2552C47.7029 24.8935 46.4064 24.4386 45.7171 23.5693C45.1071 22.8012 45.4907 22.0737 45.8979 21.3043C45.9346 21.2354 45.9699 21.1666 46.0066 21.0964C46.1624 20.7927 46.3241 20.489 46.4844 20.1866C46.8798 19.4375 47.2884 18.664 47.6456 17.8825C47.7132 17.734 47.7867 17.5842 47.8602 17.4357C48.1218 16.8984 48.3937 16.3423 48.4628 15.743C48.5216 15.2247 48.4055 14.7144 48.2908 14.2231C48.2438 14.0247 48.1982 13.8181 48.163 13.617C48.0101 12.7261 47.9969 11.7826 48.1203 10.8121C48.2629 9.69848 48.4952 8.44314 49.4285 7.65619C49.965 7.2013 50.6265 6.89084 51.2659 6.58983C51.6775 6.39681 52.1023 6.19568 52.4932 5.95946L52.5153 5.94596C53.0841 5.60041 53.6221 5.2751 54.0543 4.77432C54.1689 4.64203 54.2792 4.4949 54.3042 4.31942C54.3468 4.02516 54.1366 3.76195 53.9749 3.58917C53.1826 2.74553 52.8475 1.56713 53.0077 0.423828H52.8637C52.7034 1.59818 53.0518 2.81032 53.8676 3.67826C54.0102 3.83079 54.1968 4.06161 54.1616 4.30188C54.1395 4.44496 54.0425 4.57319 53.9411 4.69063C53.5236 5.17386 52.996 5.49377 52.4359 5.83258L52.4153 5.84608C52.0302 6.0796 51.6084 6.27802 51.2012 6.4697C50.5545 6.77476 49.8842 7.08927 49.3315 7.55631C48.3629 8.3743 48.1247 9.65798 47.9778 10.7959C47.8499 11.7786 47.8646 12.7356 48.0204 13.6386C48.0557 13.8438 48.1027 14.0503 48.1497 14.2514C48.2614 14.7333 48.3776 15.2314 48.3202 15.7281C48.2541 16.3059 47.9866 16.8512 47.7293 17.379C47.6559 17.5288 47.5824 17.6786 47.5133 17.8298C47.1576 18.6073 46.7504 19.3794 46.355 20.1259C46.1948 20.4296 46.0331 20.7333 45.8773 21.0384L45.7685 21.2449C45.3599 22.017 44.9395 22.8147 45.601 23.6489C46.3153 24.5506 47.6382 25.0163 48.9596 25.3848L49.0919 25.4212C49.7093 25.594 50.2958 25.7601 50.9396 25.7601C51.0454 25.7601 51.1542 25.7547 51.2644 25.7452C52.4786 25.6372 53.8073 25.2093 55.3257 24.4372C56.2047 23.9904 57.0484 23.4532 57.8333 22.839C57.9612 22.7391 58.0847 22.6406 58.2082 22.5434C58.7902 22.0804 59.3488 21.639 60.0176 21.2827V21.1288C59.3076 21.4973 58.7241 21.9562 58.1141 22.4395C57.9921 22.5367 57.8686 22.6352 57.7408 22.7351H57.7393Z" fill="#CDCDCD"/>
<path d="M23.0704 54.0483C23.9303 54.4452 24.7505 54.9176 25.5442 55.4238H25.7985C24.9445 54.8731 24.0626 54.3588 23.1336 53.9282C22.0635 53.4341 21.6034 52.3691 21.7607 50.7628C21.8695 49.6789 22.481 48.7246 23.4408 48.1442C24.5667 47.4639 26.0822 47.09 27.6329 47.09C27.9607 47.09 28.2899 47.1062 28.6192 47.1413C29.726 47.256 30.8093 47.692 31.8544 48.1145C32.729 48.4668 33.6315 48.8312 34.559 49.0162C36.8741 49.4765 38.7923 49.3739 40.4209 48.703C41.1015 48.4236 41.782 48.0267 42.5023 47.6083C43.8899 46.7998 45.3259 45.9615 46.7929 45.9858C48.2892 46.0074 49.7782 46.6094 50.5823 47.5192C51.1923 48.209 51.4113 49.031 51.2334 49.9624C51.0585 50.8776 50.5661 51.7401 50.0766 52.5433C49.4328 53.5988 49.0697 54.5518 48.9786 55.4238H49.1256C49.2167 54.5747 49.5739 53.6447 50.203 52.6108C50.6984 51.7968 51.1981 50.9235 51.376 49.9867C51.5583 49.0283 51.3245 48.1455 50.694 47.4342C49.8635 46.4947 48.3333 45.8724 46.7958 45.8508C46.7753 45.8508 46.7561 45.8495 46.7385 45.8495C45.251 45.8495 43.8149 46.685 42.4258 47.4936C41.71 47.9107 41.0339 48.3035 40.3636 48.5802C38.7614 49.2389 36.8741 49.3374 34.5899 48.8839C33.6786 48.703 32.7805 48.3413 31.9132 47.9903C30.8564 47.5651 29.7657 47.1237 28.6354 47.0063C26.7245 46.8079 24.7549 47.1912 23.3629 48.0308C22.3634 48.6342 21.7284 49.6249 21.6167 50.7507C21.452 52.4177 21.94 53.5273 23.0689 54.0483H23.0704Z" fill="#CDCDCD"/>
<path d="M26.579 53.3019C27.1493 53.6488 27.7667 53.9322 28.362 54.2049C28.6163 54.3223 28.872 54.4384 29.1234 54.5599C29.7157 54.8461 30.3184 55.1336 30.9357 55.4238H31.2577C30.5506 55.0931 29.8627 54.7664 29.1895 54.4398C28.9382 54.3183 28.6809 54.2008 28.4252 54.0834C27.8328 53.8121 27.2199 53.5313 26.6584 53.1885C25.8749 52.7106 24.9695 52.0506 24.8989 51.1732C24.8416 50.4524 25.5001 49.8382 26.0807 49.5331C26.4394 49.3442 26.7642 49.2767 27.1067 49.2767C27.3845 49.2767 27.677 49.3212 28.0107 49.3806C29.3056 49.6087 30.3919 49.9071 31.3297 50.2931C31.7324 50.4591 32.1131 50.6832 32.4821 50.9005C32.9804 51.1934 33.4948 51.4958 34.0754 51.6645C34.7119 51.8508 35.4292 51.9331 36.3964 51.9345H36.4111C38.6041 51.9345 40.6297 51.6294 42.4317 51.0301C42.5758 50.9815 42.7242 50.9289 42.8756 50.8749L43.0476 50.8141C43.9795 50.4875 44.8835 50.2202 45.6816 50.5496C46.5798 50.9181 46.4151 52.0492 46.2387 52.6904C45.9609 53.6947 45.7713 54.6152 45.6405 55.4238H45.786C45.9154 54.6247 46.1035 53.7163 46.3784 52.7241C46.7047 51.5457 46.4769 50.7291 45.7405 50.4254C44.8909 50.0758 43.9575 50.3498 42.9962 50.6886L42.8242 50.7493C42.6743 50.802 42.5243 50.8546 42.3818 50.9019C40.5958 51.4971 38.5865 51.7995 36.4111 51.7995H36.3964C35.4439 51.7982 34.7413 51.7172 34.1195 51.5363C33.5566 51.3716 33.0494 51.0747 32.56 50.7858C32.1866 50.5671 31.8 50.339 31.387 50.1703C30.4404 49.7802 29.3439 49.4778 28.0371 49.2483C27.2875 49.1147 26.7025 49.0499 26.0087 49.4157C25.3899 49.741 24.6917 50.3984 24.7534 51.1826C24.8269 52.1194 25.7662 52.8078 26.5775 53.3019H26.579Z" fill="#CDCDCD"/>
<path d="M26.6584 53.1885C27.2199 53.5313 27.8343 53.8121 28.4252 54.0834C28.6809 54.2008 28.9382 54.3183 29.1895 54.4398C29.8627 54.7664 30.5506 55.0931 31.2577 55.4238H45.6405C45.7713 54.6152 45.9609 53.6947 46.2387 52.6904C46.4151 52.0492 46.5783 50.9181 45.6816 50.5496C44.882 50.2202 43.9795 50.4875 43.0476 50.8141L42.8756 50.8749C42.7242 50.9289 42.5758 50.9815 42.4317 51.0301C40.6297 51.6294 38.6041 51.9345 36.4111 51.9345H36.3964C35.4292 51.9331 34.7134 51.8508 34.0754 51.6645C33.4948 51.4958 32.9804 51.1934 32.4821 50.9005C32.1131 50.6832 31.7324 50.4591 31.3297 50.2931C30.3919 49.9071 29.3056 49.6087 28.0107 49.3806C27.677 49.3212 27.386 49.2767 27.1067 49.2767C26.7642 49.2767 26.4394 49.3442 26.0807 49.5331C25.5001 49.8382 24.8416 50.4524 24.8989 51.1732C24.968 52.0506 25.8749 52.7106 26.6584 53.1885Z" fill="#CDCDCD"/>
<path d="M57.8322 22.839C57.0472 23.4532 56.2035 23.9904 55.3245 24.4372C53.8061 25.2093 52.4774 25.6372 51.2632 25.7452C51.153 25.7547 51.0442 25.7601 50.9384 25.7601C50.2961 25.7601 49.7081 25.594 49.0907 25.4212L48.9585 25.3848C47.637 25.0163 46.3156 24.5506 45.5998 23.6489C44.9383 22.8147 45.3602 22.017 45.7673 21.2449L45.8761 21.0384C46.0319 20.7333 46.1936 20.4296 46.3538 20.1259C46.7492 19.3794 47.1564 18.6073 47.5121 17.8298C47.5797 17.6786 47.6547 17.5288 47.7282 17.379C47.9854 16.8512 48.2514 16.3059 48.3191 15.7281C48.3749 15.2314 48.2603 14.7333 48.1486 14.2514C48.1015 14.0503 48.0545 13.8438 48.0192 13.6386C47.8649 12.7356 47.8502 11.7786 47.9766 10.7959C48.1221 9.65798 48.3617 8.3743 49.3303 7.55631C49.883 7.08927 50.5533 6.77476 51.2 6.4697C51.6087 6.27802 52.0291 6.0796 52.4142 5.84608L52.4347 5.83258C52.9948 5.49377 53.5239 5.17386 53.9399 4.69063C54.0413 4.57319 54.1383 4.44496 54.1604 4.30188C54.1957 4.06161 54.009 3.83079 53.8664 3.67826C53.0506 2.81032 52.7037 1.59818 52.8625 0.423828H47.8355C48.0633 0.855772 48.3441 1.26072 48.6851 1.62247C48.9232 1.87489 49.2304 2.26094 49.1686 2.69019C49.1304 2.9453 48.9702 3.16127 48.8027 3.35565C48.1588 4.10075 47.3548 4.58804 46.5038 5.10367L46.4714 5.12392C45.8864 5.47757 45.2499 5.77724 44.6341 6.06745C43.6742 6.51964 42.682 6.98668 41.8707 7.67104C40.464 8.85889 40.1142 10.7459 39.8996 12.4224C39.7114 13.8802 39.7335 15.2989 39.9613 16.6366C40.0127 16.9389 40.0848 17.2481 40.1538 17.5464C40.3229 18.2807 40.4993 19.042 40.4111 19.8127C40.3082 20.7077 39.9025 21.5378 39.51 22.3396C39.4027 22.5596 39.291 22.7877 39.1881 23.0105C38.6546 24.1821 38.0401 25.3416 37.4478 26.462C37.2082 26.9169 36.9671 27.3717 36.7319 27.828C36.679 27.9319 36.6232 28.0359 36.5688 28.1398C35.9544 29.302 35.3767 30.4008 36.3027 31.5684C37.3405 32.879 39.291 33.5634 41.243 34.1087L41.4385 34.1627C42.4998 34.461 43.5022 34.7431 44.6252 34.6419C46.4229 34.4826 48.3911 33.8482 50.6444 32.7022C51.9512 32.0381 53.2064 31.2376 54.375 30.3252C54.5661 30.1753 54.7513 30.0268 54.935 29.8811C56.0595 28.9888 57.1208 28.1452 58.5583 27.554C59.0375 27.3569 59.5225 27.176 60.012 27.0113V21.2827C59.3447 21.639 58.7861 22.0804 58.2026 22.5434C58.0791 22.6406 57.9556 22.7391 57.8278 22.839H57.8322Z" fill="#CDCDCD"/>
<path d="M-22.4075 26.192C-19.2296 26.2703 -16.6955 26.7319 -14.6568 27.6053C-13.3692 28.156 -12.477 29.0428 -11.5348 29.981L-11.3628 30.1524C-9.62685 31.8748 -7.98646 33.7483 -7.74393 35.7839C-7.5205 37.6507 -8.96834 38.5497 -10.3691 39.4203C-10.4956 39.4986 -10.6205 39.5769 -10.7469 39.6565C-11.2996 40.0061 -11.8567 40.353 -12.4138 40.6986C-13.7837 41.549 -15.2007 42.4277 -16.5412 43.3631C-16.7984 43.544 -17.0674 43.7222 -17.3291 43.895C-18.2668 44.5159 -19.2384 45.1584 -19.9234 46.0317C-20.5128 46.7822 -20.8244 47.6812 -21.1258 48.5505C-21.2507 48.9082 -21.3786 49.2794 -21.5256 49.6344C-22.1723 51.2043 -23.0969 52.7363 -24.2699 54.1901C-24.5991 54.6004 -24.9489 55.0175 -25.3193 55.4238H-14.1555C-13.9483 55.1795 -13.744 54.9352 -13.547 54.6922C-12.2079 53.0333 -11.1555 51.2853 -10.4176 49.4967C-10.2515 49.0918 -10.1031 48.6679 -9.96195 48.2589C-9.61212 47.2506 -9.24905 46.2072 -8.55821 45.3271C-7.75712 44.3053 -6.63413 43.5616 -5.54788 42.8407C-5.24802 42.6437 -4.93935 42.4385 -4.6439 42.2333C-3.10052 41.1562 -1.47188 40.1451 0.100895 39.1679C0.728537 38.7778 1.3797 38.3742 2.01469 37.9733C2.15874 37.8815 2.30425 37.791 2.44977 37.7006C4.09016 36.6815 5.63943 35.7177 5.39396 33.6633C5.12056 31.3672 3.25527 29.2386 1.28121 27.28L1.08425 27.0842C0.0112305 26.0179 -1.00152 25.0095 -2.4523 24.3886C-4.77472 23.3938 -7.66452 22.8687 -11.2893 22.7796C-13.3956 22.727 -15.5358 22.8755 -17.6583 23.2197C-18.0037 23.2764 -18.3447 23.3344 -18.6798 23.3911C-20.7289 23.738 -22.6632 24.0674 -24.8637 23.8393C-25.0165 23.8231 -25.1694 23.8069 -25.3223 23.788V26.2662C-24.3477 26.1933 -23.3732 26.169 -22.409 26.192L-22.4075 26.192Z" fill="#CDCDCD"/>
<path d="M-17.9405 37.5818C-18.1331 35.9728 -19.4413 34.4786 -20.8289 33.1031L-20.9685 32.9641C-21.7211 32.2149 -22.434 31.5076 -23.4497 31.0716C-24.0229 30.8273 -24.6447 30.6221 -25.3208 30.4588V43.8153C-25.2121 43.7424 -25.1033 43.6682 -24.996 43.5939C-23.9083 42.8353 -22.7618 42.124 -21.6549 41.4356C-21.2051 41.1575 -20.7554 40.8781 -20.31 40.596C-20.2071 40.5312 -20.1057 40.4678 -20.0028 40.4043C-18.8533 39.6903 -17.7686 39.0153 -17.9405 37.5818Z" fill="#CDCDCD"/>
<path d="M34.8577 0.423828C26.7072 3.7255 25.4461 8.65236 24.6832 11.6355C24.3275 13.0285 24.7096 15.1207 25.1521 17.5423C25.6974 20.5308 26.3177 23.9189 25.5783 26.6077C25.3005 27.6147 24.692 28.2262 23.8174 28.376C22.6121 28.5839 20.9673 27.9454 19.0594 26.5322C16.9457 24.965 14.5527 22.4557 12.1406 19.2755C7.53842 13.208 0.0214176 14.3257 -7.93655 15.5095C-12.7151 16.2195 -17.6569 16.9538 -22.1107 16.1061C-23.3233 15.8739 -24.389 15.2179 -25.318 14.2933V14.485C-24.3993 15.3677 -23.3439 16.0089 -22.1386 16.2384C-17.6584 17.0915 -12.7034 16.3545 -7.91156 15.6418C0.000841141 14.4661 7.47374 13.3552 12.0245 19.3524C14.4792 22.5893 16.8178 25.0406 18.9727 26.6374C20.6704 27.8968 22.1726 28.5488 23.3588 28.5488C23.5278 28.5488 23.691 28.5366 23.8468 28.5096C24.7817 28.349 25.4299 27.7025 25.7224 26.6415C26.4691 23.9243 25.8473 20.5214 25.2976 17.5194C24.8596 15.1126 24.4789 13.0325 24.8287 11.6679C25.5945 8.67126 26.8689 3.6985 35.2311 0.423828H34.8577Z" fill="#CDCDCD"/>
<path d="M25.9179 0.423828C25.0271 1.27152 24.132 2.27849 23.3368 3.45419C20.5234 7.6157 19.8487 12.4629 21.3333 17.8622C22.155 20.8521 21.5362 21.5634 21.0952 21.7214C20.1868 22.0467 18.5126 20.7239 17.7821 19.4132C14.7659 14.0125 10.7251 10.8674 5.06754 9.51355C0.0317078 8.30816 -6.32261 8.42694 -16.1782 9.9104C-19.3561 10.3896 -21.9269 9.86991 -23.8187 8.36755C-24.3787 7.92346 -24.8785 7.39568 -25.318 6.78556V7.02178C-24.9005 7.5752 -24.4316 8.05709 -23.9113 8.47014C-21.9857 9.99949 -19.3767 10.5286 -16.1547 10.044C-6.31967 8.56328 0.0155392 8.44449 5.03079 9.64449C10.6472 10.9876 14.6571 14.1111 17.6527 19.4753C18.3333 20.6915 19.7767 21.905 20.7924 21.905C20.9173 21.905 21.0349 21.8861 21.1452 21.8469C21.7419 21.635 22.2799 20.7657 21.4744 17.8285C19.9986 12.467 20.6674 7.65484 23.4602 3.52708C24.2804 2.31628 25.2065 1.28502 26.1237 0.423828H25.9179Z" fill="#CDCDCD"/>
<path d="M-14.7774 0.568259C-15.5844 0.700542 -16.3237 0.624952 -17.0058 0.423828H-17.3865C-16.5957 0.712691 -15.7255 0.842274 -14.7554 0.682995C-13.8132 0.527765 -12.6637 1.0083 -11.8259 1.90594C-10.8749 2.9264 -10.5633 4.19119 -10.9748 5.37499C-11.0895 5.703 -11.4423 5.99456 -12.0273 6.24563C-13.7926 6.99883 -17.0984 7.11761 -18.2758 6.65462C-21.0289 5.57476 -23.3895 3.27736 -24.0171 1.07039C-24.0789 0.851723 -24.1215 0.637101 -24.1494 0.423828H-24.2758C-24.2479 0.646549 -24.2038 0.87197 -24.1377 1.10009C-23.5012 3.3408 -21.1112 5.66925 -18.3243 6.76261C-17.8539 6.94754 -17.0499 7.04202 -16.1385 7.04202C-14.7289 7.04202 -13.0621 6.8166 -11.9743 6.35091C-11.357 6.0877 -10.9792 5.77184 -10.8558 5.41143C-10.4295 4.18714 -10.7499 2.88051 -11.7318 1.829C-12.5976 0.901666 -13.7926 0.40628 -14.7774 0.568259Z" fill="#CDCDCD"/>
<path d="M25.9165 0.423828H20.5176C19.5284 6.44945 17.8909 9.72683 15.6405 10.1777C15.4039 10.2249 15.1775 10.2465 14.9555 10.2465C13.6532 10.2465 12.5523 9.48116 11.2103 8.54843C9.51548 7.36868 7.40473 5.90142 4.03428 5.50997C1.44581 5.21031 -0.55324 5.50997 -2.1613 5.75159C-4.08832 6.0418 -5.47883 6.24968 -6.77821 5.32774C-7.27797 4.97139 -7.54696 4.33967 -7.88797 3.53923C-8.25986 2.66454 -8.71846 1.58738 -9.65037 0.423828H-17.0058C-16.3237 0.626302 -15.5844 0.700542 -14.7774 0.568259C-13.7926 0.40628 -12.5976 0.901666 -11.7318 1.829C-10.7499 2.88051 -10.431 4.18714 -10.8558 5.41143C-10.9807 5.77184 -11.357 6.0877 -11.9743 6.35091C-13.0635 6.8166 -14.7289 7.04202 -16.1385 7.04202C-17.0499 7.04202 -17.8539 6.94754 -18.3243 6.76261C-21.1112 5.66925 -23.5012 3.3408 -24.1377 1.10009C-24.2023 0.87197 -24.2479 0.646549 -24.2758 0.423828H-25.3208V6.78556C-24.8813 7.39568 -24.3816 7.92346 -23.8215 8.36755C-21.9298 9.86991 -19.359 10.3896 -16.1811 9.9104C-6.32695 8.42694 0.0288372 8.30816 5.06467 9.51355C10.7237 10.8674 14.763 14.0125 17.7792 19.4132C18.5097 20.7239 20.1839 22.0467 21.0923 21.7214C21.5333 21.5634 22.1536 20.8521 21.3304 17.8622C19.8459 12.4629 20.5205 7.6157 23.3339 3.45419C24.1291 2.27849 25.0243 1.27152 25.915 0.423828H25.9165Z" fill="#CDCDCD"/>
<path d="M20.3926 0.423828C19.4122 6.38466 17.8086 9.62424 15.6126 10.0629C14.0471 10.3761 12.8286 9.52705 11.2852 8.45394C9.57722 7.26744 7.45176 5.78938 4.05045 5.39389C1.44434 5.09152 -0.566469 5.39389 -2.1804 5.63685C-4.07656 5.92032 -5.44796 6.12684 -6.70325 5.23461C-7.17508 4.8985 -7.43819 4.28028 -7.77185 3.49603C-8.13932 2.63079 -8.59205 1.57118 -9.49309 0.423828H-9.65331C-8.7214 1.58738 -8.26279 2.66454 -7.89091 3.53923C-7.5499 4.33967 -7.27944 4.97139 -6.78115 5.32774C-5.48324 6.24968 -4.09126 6.0418 -2.16424 5.75159C-0.556181 5.50997 1.44287 5.21031 4.03134 5.50997C7.40179 5.90142 9.51107 7.36868 11.2073 8.54843C12.5493 9.48116 13.6488 10.2465 14.9526 10.2465C15.1745 10.2465 15.4009 10.2249 15.6376 10.1777C17.888 9.72683 19.5269 6.4481 20.5146 0.423828H20.3897H20.3926Z" fill="#CDCDCD"/>
<path d="M55.6989 45.1341C57.2173 46.3314 58.9371 47.6893 58.7886 49.4549C58.6886 50.6387 57.8288 51.3379 56.9189 52.079C56.0208 52.8106 55.0918 53.5651 54.6906 54.8609C54.6332 55.0445 54.5921 55.2321 54.5627 55.4238H54.6891C54.7185 55.2443 54.7582 55.0661 54.8111 54.8933C55.2036 53.6313 56.1163 52.8875 57.0012 52.168C57.9317 51.4108 58.8107 50.6954 58.915 49.4643C59.0679 47.6394 57.3231 46.2599 55.7827 45.0437C54.4715 44.0097 53.2324 43.0311 53.447 41.9809C53.7293 40.5865 54.889 39.2489 56.6293 38.3094C57.6641 37.7519 58.8092 37.3794 60.0174 37.1944V37.0743C58.7871 37.2619 57.6186 37.6399 56.5661 38.2081C54.7949 39.1638 53.6131 40.5312 53.3236 41.9593C53.0972 43.077 54.3628 44.0758 55.7018 45.1341H55.6989Z" fill="#CDCDCD"/>
<path d="M14.5175 55.4238C14.6248 54.5801 14.7997 53.7635 14.9687 52.9806C15.4406 50.7952 15.8859 48.7327 14.7086 46.9023C14.2823 46.2423 13.4474 46.3084 12.8212 46.4812C10.4988 47.1197 6.69768 50.5037 4.79711 55.4238H14.5175Z" fill="#CDCDCD"/>
<path d="M4.79711 55.4238C6.69768 50.505 10.4988 47.1197 12.8212 46.4812C13.4474 46.3084 14.2838 46.2423 14.7086 46.9023C15.8874 48.7327 15.4406 50.7952 14.9687 52.9806C14.7997 53.7635 14.6248 54.5801 14.5175 55.4238H14.6395C14.7468 54.6058 14.9188 53.7999 15.0907 53.0035C15.5684 50.7966 16.0182 48.7111 14.8144 46.8416C14.4513 46.2774 13.7296 46.1086 12.7845 46.3692C10.9074 46.8848 8.54092 48.8825 6.75354 51.4566C5.88924 52.7012 5.19104 54.0389 4.66629 55.4238H4.79711Z" fill="#CDCDCD"/>
<path d="M-9.03014 19.073C-7.35006 18.853 -5.61266 18.6249 -3.90759 18.4413C-0.613575 18.0876 2.98912 18.6586 6.23169 20.0476C8.21898 20.898 11.8481 24.4413 12.5566 25.1432C14.5983 27.1679 16.1887 30.3724 16.5165 33.118C16.7473 35.0428 15.6963 35.4707 14.366 36.012C13.8413 36.2266 13.246 36.4696 12.6698 36.834C11.8364 37.3605 10.9677 37.8936 10.0475 38.4592C8.16606 39.6147 6.21699 40.8106 4.53985 41.9823C4.17237 42.2374 3.79462 42.4857 3.43008 42.7247C2.19391 43.5332 1.02535 44.2986 0.136068 45.4324C-0.861984 46.7039 -2.27308 48.7881 -2.96686 50.474C-3.27113 51.211 -3.50337 52.0155 -3.72827 52.793C-3.9855 53.6785 -4.24713 54.5815 -4.62195 55.4238H0.0478745C0.563805 53.476 1.34872 51.6322 2.40704 49.9084C3.72847 47.7582 8.58498 40.7337 15.6184 40.6365C18.2495 40.5973 23.278 41.2318 23.544 42.9177C23.6704 43.7249 22.8282 44.4497 21.8536 45.2893C21.1848 45.8657 20.4264 46.5177 19.9457 47.2587C18.5817 49.3658 18.6155 52.0614 20.0648 55.4238H25.5489C24.7537 54.9176 23.9335 54.4452 23.0751 54.0483C21.9462 53.5273 21.4582 52.4178 21.6229 50.7507C21.7346 49.625 22.3696 48.6342 23.3691 48.0308C24.7596 47.1912 26.7307 46.8079 28.6416 47.0063C29.7705 47.1237 30.8626 47.5651 31.9194 47.9903C32.7867 48.3413 33.6833 48.703 34.5961 48.8839C36.8803 49.3375 38.7676 49.2389 40.3698 48.5802C41.0401 48.3035 41.7162 47.9107 42.4321 47.4936C43.8196 46.685 45.2557 45.8495 46.7447 45.8495C46.7638 45.8495 46.7829 45.8509 46.802 45.8509C48.3395 45.8725 49.8697 46.4947 50.7002 47.4342C51.3293 48.1456 51.5645 49.0283 51.3822 49.9867C51.2043 50.9235 50.7046 51.7968 50.2092 52.6108C49.5801 53.6434 49.2229 54.5748 49.1318 55.4238H54.566C54.5954 55.2321 54.6365 55.0445 54.6938 54.8609C55.0951 53.5651 56.0241 52.8106 56.9222 52.0789C57.8321 51.3379 58.6919 50.6387 58.7919 49.4549C58.9404 47.6893 57.2221 46.3314 55.7022 45.1341C54.3631 44.0758 53.0976 43.077 53.3239 41.9593C53.6135 40.5312 54.7953 39.1638 56.5665 38.2081C57.6189 37.6399 58.7875 37.2619 60.0178 37.0743V33.3758C59.5504 33.477 59.0771 33.5917 58.5949 33.7227C57.3235 34.0669 56.055 34.4988 54.8232 35.005C52.9432 35.7785 51.5454 36.8867 50.0681 38.061C49.8256 38.2554 49.5772 38.4511 49.3244 38.6495C47.7692 39.8657 46.098 40.9307 44.3576 41.8162C41.3546 43.3429 38.725 44.1892 36.3217 44.4038C36.1057 44.4227 35.894 44.4322 35.6867 44.4322C34.4212 44.4322 33.2585 44.1055 32.037 43.7627L31.7798 43.6911C29.1663 42.9609 26.5558 42.043 25.1506 40.2693C23.863 38.6468 24.6891 37.081 25.4887 35.5665C25.5607 35.4289 25.6327 35.2925 25.7048 35.1562C26.0178 34.5501 26.3353 33.9481 26.6543 33.3447C27.4377 31.8626 28.2462 30.3306 28.9547 28.7837C29.0899 28.4854 29.2369 28.1843 29.3809 27.8914C29.8954 26.8399 30.4275 25.752 30.5598 24.5925C30.673 23.5963 30.4437 22.6015 30.2217 21.6404C30.1306 21.2435 30.035 20.8332 29.966 20.4282C29.6602 18.6411 29.6323 16.7486 29.8836 14.8035C30.1732 12.5561 30.6421 10.0224 32.5485 8.41344C33.6392 7.49286 34.9636 6.87059 36.2438 6.26722C37.0537 5.88522 37.8931 5.49107 38.6603 5.02538L38.703 4.99974C39.8186 4.32347 40.8725 3.68501 41.7074 2.71718C41.9161 2.47691 42.1146 2.2137 42.1572 1.91269C42.2307 1.4092 41.85 0.935412 41.556 0.623602C41.4943 0.558811 41.4355 0.491319 41.3767 0.423828H35.2311C26.8689 3.69985 25.596 8.67126 24.8287 11.6679C24.4789 13.0325 24.8596 15.1126 25.2976 17.5194C25.8459 20.5214 26.4691 23.9243 25.7224 26.6415C25.4299 27.7025 24.7817 28.349 23.8468 28.5096C23.691 28.5366 23.5278 28.5488 23.3588 28.5488C22.1726 28.5488 20.6704 27.8968 18.9727 26.6374C16.8178 25.0406 14.4792 22.5893 12.0245 19.3524C7.47522 13.3552 0.000841141 14.4661 -7.91156 15.6418C-12.7034 16.3545 -17.6584 17.0915 -22.1386 16.2384C-23.3424 16.0089 -24.3993 15.3677 -25.318 14.485V19.5887C-20.5482 20.5862 -14.8891 19.8424 -9.0272 19.073H-9.03014Z" fill="#CDCDCD"/>
<path d="M0.174284 55.4238C0.687275 53.4976 1.46631 51.6727 2.51287 49.9665C3.18902 48.865 4.64127 46.7255 6.76967 44.7588C9.60214 42.1429 12.5787 40.7958 15.6169 40.7539C18.6552 40.7134 23.1824 41.4639 23.4147 42.9339C23.5323 43.6803 22.7106 44.3863 21.7625 45.2043C21.0878 45.7847 20.3235 46.4421 19.8325 47.198C18.4523 49.3294 18.4773 52.0452 19.9237 55.4238H20.0589C18.6096 52.0628 18.5758 49.3658 19.9399 47.2587C20.4205 46.5177 21.179 45.8657 21.8478 45.2893C22.8223 44.4497 23.6645 43.7249 23.5381 42.9177C23.2721 41.2318 18.2451 40.5973 15.6125 40.6365C8.5791 40.7337 3.72259 47.7582 2.40117 49.9084C1.34285 51.6308 0.557926 53.476 0.041996 55.4238H0.174284Z" fill="#CDCDCD"/>
</g>
<defs>
<clipPath id="clip0_1049_1329">
<rect x="0.333008" width="55" height="55" rx="4" fill="white"/>
</clipPath>
</defs>
</svg>
