<svg width="617" height="400" viewBox="0 0 617 400" fill="none" xmlns="http://www.w3.org/2000/svg">
<path d="M36.9089 400C33.259 390.21 24.0493 378.58 1.08 375.66C1.08 375.66 0.840092 388.95 8.78983 400H36.9089Z" fill="black" fill-opacity="0.3"/>
<path d="M69.9577 400C74.0876 394.41 77.0675 386.7 77.4875 376.01C77.4875 376.01 52.8283 373.3 42.6387 400H69.9577Z" fill="black" fill-opacity="0.3"/>
<path d="M108.606 399.81C108.606 399.81 140.855 403.38 146.835 362.46C146.705 368.39 148.215 394.91 183.874 400H185.004C185.004 397.45 184.314 363.96 149.245 361.41C156.835 361.32 180.704 358.18 185.334 322.77C185.334 322.77 149.625 321.72 147.035 359.53C147.095 352.41 144.805 327 109.366 321.99C109.366 321.99 108.166 358.45 145.165 361.28C137.705 361.68 109.936 365.49 108.596 399.81H108.606Z" fill="black" fill-opacity="0.3"/>
<path d="M252.602 400C248.952 390.21 239.752 378.58 216.783 375.66C216.783 375.66 216.543 388.95 224.503 400H252.602Z" fill="black" fill-opacity="0.3"/>
<path d="M285.651 400C289.781 394.42 292.771 386.7 293.181 376.01C293.181 376.01 268.541 373.32 258.352 400H285.651Z" fill="black" fill-opacity="0.3"/>
<path d="M324.31 399.81C324.31 399.81 356.558 403.38 362.538 362.46C362.408 368.39 363.918 394.91 399.577 400H400.707C400.707 397.45 400.017 363.96 364.948 361.41C372.538 361.32 396.407 358.18 401.037 322.77C401.037 322.77 365.328 321.72 362.738 359.53C362.798 352.41 360.508 327 325.069 321.99C325.069 321.99 323.869 358.45 360.868 361.28C353.409 361.68 325.639 365.49 324.3 399.81H324.31Z" fill="black" fill-opacity="0.3"/>
<path d="M501.354 400C505.484 394.42 508.474 386.7 508.894 376.01C508.894 376.01 484.234 373.3 474.045 400H501.354Z" fill="black" fill-opacity="0.3"/>
<path d="M468.305 400C464.655 390.21 455.445 378.58 432.486 375.66C432.486 375.66 432.246 388.95 440.196 400H468.305Z" fill="black" fill-opacity="0.3"/>
<path d="M540.003 399.81C540.003 399.81 572.251 403.38 578.231 362.46C578.101 368.39 579.611 394.91 615.27 400H616.4C616.4 397.45 615.71 363.96 580.641 361.41C588.231 361.32 612.1 358.18 616.73 322.77C616.73 322.77 581.021 321.72 578.431 359.53C578.491 352.41 576.201 327 540.763 321.99C540.763 321.99 539.562 358.45 576.561 361.28C569.102 361.68 541.332 365.49 539.992 399.81H540.003Z" fill="black" fill-opacity="0.3"/>
<path d="M0.760009 346.14C0.760009 346.14 33.0089 349.71 38.9887 308.79C38.8587 314.78 40.3787 341.82 77.1576 346.5C77.1576 346.5 77.8575 310.39 41.3987 307.74C48.9885 307.65 72.8576 304.51 77.4875 269.1C77.4875 269.1 41.7787 268.05 39.1888 305.86C39.2488 298.74 36.9588 273.33 1.51999 268.32C1.51999 268.32 0.320084 304.78 37.3189 307.61C29.8591 308.01 2.08996 311.82 0.75 346.14H0.760009Z" fill="black" fill-opacity="0.3"/>
<path d="M185.334 215C185.334 215 153.085 211.43 147.105 252.35C147.235 246.36 145.715 219.32 108.937 214.64C108.937 214.64 108.237 250.75 144.695 253.4C137.106 253.49 113.236 256.63 108.607 292.04C108.607 292.04 144.315 293.09 146.905 255.28C146.845 262.4 149.135 287.81 184.574 292.82C184.574 292.82 185.774 256.36 148.775 253.53C156.235 253.13 184.004 249.32 185.344 215H185.334Z" fill="black" fill-opacity="0.3"/>
<path d="M216.453 346.14C216.453 346.14 248.702 349.71 254.682 308.79C254.552 314.78 256.072 341.82 292.85 346.5C292.85 346.5 293.55 310.39 257.092 307.74C264.681 307.65 288.551 304.51 293.181 269.1C293.181 269.1 257.472 268.05 254.882 305.86C254.942 298.74 252.652 273.33 217.213 268.32C217.213 268.32 216.013 304.78 253.012 307.61C245.552 308.01 217.783 311.82 216.443 346.14H216.453Z" fill="black" fill-opacity="0.3"/>
<path d="M401.037 215C401.037 215 368.788 211.43 362.808 252.35C362.938 246.36 361.418 219.32 324.639 214.64C324.639 214.64 323.94 250.75 360.398 253.4C352.809 253.49 328.939 256.63 324.31 292.04C324.31 292.04 360.018 293.09 362.608 255.28C362.548 262.4 364.838 287.81 400.277 292.82C400.277 292.82 401.477 256.36 364.478 253.53C371.938 253.13 399.707 249.32 401.047 215H401.037Z" fill="black" fill-opacity="0.3"/>
<path d="M432.156 346.14C432.156 346.14 464.405 349.71 470.385 308.79C470.255 314.78 471.775 341.82 508.553 346.5C508.553 346.5 509.253 310.39 472.795 307.74C480.384 307.65 504.254 304.51 508.883 269.1C508.883 269.1 473.174 268.05 470.585 305.86C470.645 298.74 468.355 273.33 432.916 268.32C432.916 268.32 431.716 304.78 468.715 307.61C461.255 308.01 433.486 311.82 432.146 346.14H432.156Z" fill="black" fill-opacity="0.3"/>
<path d="M616.74 215C616.74 215 584.491 211.43 578.511 252.35C578.641 246.36 577.121 219.32 540.342 214.64C540.342 214.64 539.643 250.75 576.101 253.4C568.512 253.49 544.642 256.63 540.013 292.04C540.013 292.04 575.721 293.09 578.311 255.28C578.251 262.4 580.541 287.81 615.98 292.82C615.98 292.82 617.18 256.36 580.181 253.53C587.641 253.13 615.41 249.32 616.75 215H616.74Z" fill="black" fill-opacity="0.3"/>
<path d="M77.4875 161.32C77.4875 161.32 45.2386 157.75 39.2588 198.67C39.3888 192.68 37.8688 165.64 1.08996 160.96C1.08996 160.96 0.389988 197.07 36.8488 199.72C29.2591 199.81 5.38986 202.95 0.76001 238.36C0.76001 238.36 36.4689 239.41 39.0588 201.6C38.9988 208.72 41.2887 234.13 76.7275 239.14C76.7275 239.14 77.9276 202.68 40.9287 199.85C48.3885 199.45 76.1575 195.64 77.4975 161.32H77.4875Z" fill="black" fill-opacity="0.3"/>
<path d="M108.606 185.12C108.606 185.12 140.855 188.69 146.835 147.77C146.705 153.76 148.225 180.8 185.004 185.48C185.004 185.48 185.704 149.37 149.245 146.72C156.835 146.63 180.704 143.49 185.334 108.08C185.334 108.08 149.625 107.03 147.035 144.84C147.095 137.72 144.805 112.31 109.366 107.3C109.366 107.3 108.166 143.76 145.165 146.59C137.705 146.99 109.936 150.8 108.596 185.12H108.606Z" fill="black" fill-opacity="0.3"/>
<path d="M293.19 161.32C293.19 161.32 260.942 157.75 254.962 198.67C255.092 192.68 253.572 165.64 216.793 160.96C216.793 160.96 216.093 197.07 252.552 199.72C244.962 199.81 221.093 202.95 216.463 238.36C216.463 238.36 252.172 239.41 254.762 201.6C254.702 208.72 256.992 234.13 292.431 239.14C292.431 239.14 293.63 202.68 256.632 199.85C264.091 199.45 291.861 195.64 293.2 161.32H293.19Z" fill="black" fill-opacity="0.3"/>
<path d="M324.31 185.12C324.31 185.12 356.558 188.69 362.538 147.77C362.408 153.76 363.928 180.8 400.707 185.48C400.707 185.48 401.407 149.37 364.948 146.72C372.538 146.63 396.407 143.49 401.037 108.08C401.037 108.08 365.328 107.03 362.738 144.84C362.798 137.72 360.508 112.31 325.069 107.3C325.069 107.3 323.869 143.76 360.868 146.59C353.409 146.99 325.639 150.8 324.3 185.12H324.31Z" fill="black" fill-opacity="0.3"/>
<path d="M508.884 161.32C508.884 161.32 476.635 157.75 470.655 198.67C470.785 192.68 469.265 165.64 432.486 160.96C432.486 160.96 431.786 197.07 468.245 199.72C460.655 199.81 436.786 202.95 432.156 238.36C432.156 238.36 467.865 239.41 470.455 201.6C470.395 208.72 472.685 234.13 508.124 239.14C508.124 239.14 509.324 202.68 472.325 199.85C479.785 199.45 507.554 195.64 508.894 161.32H508.884Z" fill="black" fill-opacity="0.3"/>
<path d="M540.003 185.12C540.003 185.12 572.251 188.69 578.231 147.77C578.101 153.76 579.621 180.8 616.4 185.48C616.4 185.48 617.1 149.37 580.641 146.72C588.231 146.63 612.1 143.49 616.73 108.08C616.73 108.08 581.021 107.03 578.431 144.84C578.491 137.72 576.201 112.31 540.763 107.3C540.763 107.3 539.562 143.76 576.561 146.59C569.102 146.99 541.332 150.8 539.992 185.12H540.003Z" fill="black" fill-opacity="0.3"/>
<path d="M0.760009 131.45C0.760009 131.45 33.0089 135.02 38.9887 94.1C38.8587 100.09 40.3787 127.13 77.1576 131.81C77.1576 131.81 77.8575 95.7 41.3987 93.05C48.9885 92.96 72.8576 89.82 77.4875 54.41C77.4875 54.41 41.7787 53.36 39.1888 91.17C39.2488 84.05 36.9588 58.64 1.51999 53.63C1.51999 53.63 0.320084 90.09 37.3189 92.92C29.8591 93.32 2.08996 97.13 0.75 131.45H0.760009Z" fill="black" fill-opacity="0.3"/>
<path d="M144.695 38.71C108.796 36.09 108.926 1.07 108.936 0H109.276C145.715 4.81 147.235 31.68 147.105 37.66C153.095 -3.26 185.334 0.31 185.334 0.31C183.994 34.64 156.225 38.44 148.765 38.84C185.764 41.67 184.564 78.13 184.564 78.13C149.125 73.12 146.825 47.71 146.895 40.59C144.305 78.4 108.596 77.35 108.596 77.35C113.226 41.94 137.096 38.79 144.685 38.71H144.695Z" fill="black" fill-opacity="0.3"/>
<path d="M216.453 131.45C216.453 131.45 248.702 135.02 254.682 94.0999C254.552 100.09 256.072 127.13 292.85 131.81C292.85 131.81 293.55 95.6999 257.092 93.0499C264.681 92.9599 288.551 89.8199 293.181 54.4099C293.181 54.4099 257.472 53.3599 254.882 91.1699C254.942 84.0499 252.652 58.6399 217.213 53.6299C217.213 53.6299 216.013 90.0899 253.012 92.9199C245.552 93.3199 217.783 97.1299 216.443 131.45H216.453Z" fill="black" fill-opacity="0.3"/>
<path d="M360.388 38.71C324.49 36.09 324.619 1.07 324.629 0H324.969C361.408 4.81 362.928 31.68 362.798 37.66C368.788 -3.26 401.027 0.31 401.027 0.31C399.687 34.64 371.918 38.44 364.458 38.84C401.457 41.67 400.257 78.13 400.257 78.13C364.818 73.12 362.518 47.71 362.588 40.59C359.998 78.4 324.29 77.35 324.29 77.35C328.919 41.94 352.789 38.79 360.378 38.71H360.388Z" fill="black" fill-opacity="0.3"/>
<path d="M432.156 131.45C432.156 131.45 464.405 135.02 470.385 94.0999C470.255 100.09 471.775 127.13 508.553 131.81C508.553 131.81 509.253 95.6999 472.795 93.0499C480.384 92.9599 504.254 89.8199 508.883 54.4099C508.883 54.4099 473.174 53.3599 470.585 91.1699C470.645 84.0499 468.355 58.6399 432.916 53.6299C432.916 53.6299 431.716 90.0899 468.715 92.9199C461.255 93.3199 433.486 97.1299 432.146 131.45H432.156Z" fill="black" fill-opacity="0.3"/>
<path d="M576.091 38.71C540.193 36.09 540.322 1.07 540.332 0H540.673C577.111 4.81 578.631 31.68 578.501 37.66C584.491 -3.26 616.73 0.31 616.73 0.31C615.39 34.64 587.621 38.44 580.161 38.84C617.16 41.67 615.96 78.13 615.96 78.13C580.521 73.12 578.221 47.71 578.291 40.59C575.701 78.4 539.992 77.35 539.992 77.35C544.622 41.94 568.492 38.79 576.081 38.71H576.091Z" fill="black" fill-opacity="0.3"/>
<path d="M69.2977 0C77.1274 11.16 76.7174 24.46 76.7174 24.46C54.0881 21.26 44.9884 9.76 41.3686 0H69.2977Z" fill="black" fill-opacity="0.3"/>
<path d="M36.3588 0C27.5291 24.41 0.75 23.68 0.75 23.68C2.11996 13.2 5.17987 5.57 9.00974 0H36.3588Z" fill="black" fill-opacity="0.3"/>
<path d="M285.001 0C292.83 11.16 292.421 24.46 292.421 24.46C269.791 21.26 260.691 9.76 257.072 0H285.001Z" fill="black" fill-opacity="0.3"/>
<path d="M252.062 0C243.232 24.41 216.453 23.68 216.453 23.68C217.823 13.2 220.883 5.57 224.713 0H252.062Z" fill="black" fill-opacity="0.3"/>
<path d="M500.704 0C508.534 11.16 508.124 24.46 508.124 24.46C485.494 21.26 476.395 9.76 472.775 0H500.704Z" fill="black" fill-opacity="0.3"/>
<path d="M467.765 0C458.935 24.41 432.156 23.68 432.156 23.68C433.526 13.2 436.586 5.57 440.416 0H467.765Z" fill="black" fill-opacity="0.3"/>
</svg>
