<svg width="25" height="25" viewBox="0 0 25 25" fill="none" xmlns="http://www.w3.org/2000/svg">
<g id="ham-menu-icons">
<mask id="mask0_511_4864" style="mask-type:alpha" maskUnits="userSpaceOnUse" x="0" y="0" width="25" height="25">
<rect id="Bounding box" x="0.314453" y="0.634277" width="24" height="24" fill="#D9D9D9"/>
</mask>
<g mask="url(#mask0_511_4864)">
<path id="account_circle" d="M6.16445 17.7343C7.01445 17.0843 7.96445 16.5718 9.01445 16.1968C10.0645 15.8218 11.1645 15.6343 12.3145 15.6343C13.4645 15.6343 14.5645 15.8218 15.6145 16.1968C16.6645 16.5718 17.6145 17.0843 18.4645 17.7343C19.0478 17.0509 19.502 16.2759 19.827 15.4093C20.152 14.5426 20.3145 13.6176 20.3145 12.6343C20.3145 10.4176 19.5353 8.53011 17.977 6.97178C16.4186 5.41344 14.5311 4.63428 12.3145 4.63428C10.0978 4.63428 8.21029 5.41344 6.65195 6.97178C5.09362 8.53011 4.31445 10.4176 4.31445 12.6343C4.31445 13.6176 4.47695 14.5426 4.80195 15.4093C5.12695 16.2759 5.58112 17.0509 6.16445 17.7343ZM12.3145 13.6343C11.3311 13.6343 10.502 13.2968 9.82695 12.6218C9.15195 11.9468 8.81445 11.1176 8.81445 10.1343C8.81445 9.15094 9.15195 8.32178 9.82695 7.64678C10.502 6.97178 11.3311 6.63428 12.3145 6.63428C13.2978 6.63428 14.127 6.97178 14.802 7.64678C15.477 8.32178 15.8145 9.15094 15.8145 10.1343C15.8145 11.1176 15.477 11.9468 14.802 12.6218C14.127 13.2968 13.2978 13.6343 12.3145 13.6343ZM12.3145 22.6343C10.9311 22.6343 9.63112 22.3718 8.41445 21.8468C7.19779 21.3218 6.13945 20.6093 5.23945 19.7093C4.33945 18.8093 3.62695 17.7509 3.10195 16.5343C2.57695 15.3176 2.31445 14.0176 2.31445 12.6343C2.31445 11.2509 2.57695 9.95094 3.10195 8.73428C3.62695 7.51761 4.33945 6.45928 5.23945 5.55928C6.13945 4.65928 7.19779 3.94678 8.41445 3.42178C9.63112 2.89678 10.9311 2.63428 12.3145 2.63428C13.6978 2.63428 14.9978 2.89678 16.2145 3.42178C17.4311 3.94678 18.4895 4.65928 19.3895 5.55928C20.2895 6.45928 21.002 7.51761 21.527 8.73428C22.052 9.95094 22.3145 11.2509 22.3145 12.6343C22.3145 14.0176 22.052 15.3176 21.527 16.5343C21.002 17.7509 20.2895 18.8093 19.3895 19.7093C18.4895 20.6093 17.4311 21.3218 16.2145 21.8468C14.9978 22.3718 13.6978 22.6343 12.3145 22.6343ZM12.3145 20.6343C13.1978 20.6343 14.0311 20.5051 14.8145 20.2468C15.5978 19.9884 16.3145 19.6176 16.9645 19.1343C16.3145 18.6509 15.5978 18.2801 14.8145 18.0218C14.0311 17.7634 13.1978 17.6343 12.3145 17.6343C11.4311 17.6343 10.5978 17.7634 9.81445 18.0218C9.03112 18.2801 8.31445 18.6509 7.66445 19.1343C8.31445 19.6176 9.03112 19.9884 9.81445 20.2468C10.5978 20.5051 11.4311 20.6343 12.3145 20.6343ZM12.3145 11.6343C12.7478 11.6343 13.1061 11.4926 13.3895 11.2093C13.6728 10.9259 13.8145 10.5676 13.8145 10.1343C13.8145 9.70094 13.6728 9.34261 13.3895 9.05928C13.1061 8.77594 12.7478 8.63428 12.3145 8.63428C11.8811 8.63428 11.5228 8.77594 11.2395 9.05928C10.9561 9.34261 10.8145 9.70094 10.8145 10.1343C10.8145 10.5676 10.9561 10.9259 11.2395 11.2093C11.5228 11.4926 11.8811 11.6343 12.3145 11.6343Z" fill="#1C1B1F"/>
</g>
</g>
</svg>
