<svg width="90" height="90" viewBox="0 0 90 90" fill="none" xmlns="http://www.w3.org/2000/svg">
<g id="profile big">
<path id="Ellipse 2 (Stroke)" fill-rule="evenodd" clip-rule="evenodd" d="M45 87C68.196 87 87 68.196 87 45C87 21.804 68.196 3 45 3C21.804 3 3 21.804 3 45C3 68.196 21.804 87 45 87ZM45 90C69.8528 90 90 69.8528 90 45C90 20.1472 69.8528 0 45 0C20.1472 0 0 20.1472 0 45C0 69.8528 20.1472 90 45 90Z" fill="black"/>
<path id="Vector 1 (Stroke)" fill-rule="evenodd" clip-rule="evenodd" d="M74.7343 76.479C56.5399 59.7401 32.3236 59.7847 15.2991 76.4469L13.2007 74.3029C31.4261 56.4654 57.4599 56.5099 76.7655 74.2712L74.7343 76.479Z" fill="black"/>
<path id="Ellipse 3 (Stroke)" fill-rule="evenodd" clip-rule="evenodd" d="M45 46.5C52.4558 46.5 58.5 40.4558 58.5 33C58.5 25.5442 52.4558 19.5 45 19.5C37.5442 19.5 31.5 25.5442 31.5 33C31.5 40.4558 37.5442 46.5 45 46.5ZM45 49.5C54.1127 49.5 61.5 42.1127 61.5 33C61.5 23.8873 54.1127 16.5 45 16.5C35.8873 16.5 28.5 23.8873 28.5 33C28.5 42.1127 35.8873 49.5 45 49.5Z" fill="black"/>
</g>
</svg>
