<svg width="20" height="20" viewBox="0 0 45 44" fill="none" xmlns="http://www.w3.org/2000/svg">
<mask id="mask0_64_562" style="mask-type:alpha" maskUnits="userSpaceOnUse" x="0" y="0" width="45" height="44">
<rect x="0.974609" width="44" height="44" fill="#D9D9D9"/>
</mask>
<g mask="url(#mask0_64_562)">
<path d="M10.1413 40.3337C9.13294 40.3337 8.26975 39.9746 7.55169 39.2566C6.83364 38.5385 6.47461 37.6753 6.47461 36.667V11.0003C6.47461 9.99199 6.83364 9.1288 7.55169 8.41074C8.26975 7.69269 9.13294 7.33366 10.1413 7.33366H11.9746V3.66699H15.6413V7.33366H30.3079V3.66699H33.9746V7.33366H35.8079C36.8163 7.33366 37.6795 7.69269 38.3975 8.41074C39.1156 9.1288 39.4746 9.99199 39.4746 11.0003V36.667C39.4746 37.6753 39.1156 38.5385 38.3975 39.2566C37.6795 39.9746 36.8163 40.3337 35.8079 40.3337H10.1413ZM10.1413 36.667H35.8079V18.3337H10.1413V36.667ZM10.1413 14.667H35.8079V11.0003H10.1413V14.667ZM22.9746 25.667C22.4552 25.667 22.0197 25.4913 21.6684 25.1399C21.317 24.7885 21.1413 24.3531 21.1413 23.8337C21.1413 23.3142 21.317 22.8788 21.6684 22.5274C22.0197 22.176 22.4552 22.0003 22.9746 22.0003C23.4941 22.0003 23.9295 22.176 24.2809 22.5274C24.6322 22.8788 24.8079 23.3142 24.8079 23.8337C24.8079 24.3531 24.6322 24.7885 24.2809 25.1399C23.9295 25.4913 23.4941 25.667 22.9746 25.667ZM15.6413 25.667C15.1218 25.667 14.6864 25.4913 14.335 25.1399C13.9836 24.7885 13.8079 24.3531 13.8079 23.8337C13.8079 23.3142 13.9836 22.8788 14.335 22.5274C14.6864 22.176 15.1218 22.0003 15.6413 22.0003C16.1607 22.0003 16.5961 22.176 16.9475 22.5274C17.2989 22.8788 17.4746 23.3142 17.4746 23.8337C17.4746 24.3531 17.2989 24.7885 16.9475 25.1399C16.5961 25.4913 16.1607 25.667 15.6413 25.667ZM30.3079 25.667C29.7885 25.667 29.3531 25.4913 29.0017 25.1399C28.6503 24.7885 28.4746 24.3531 28.4746 23.8337C28.4746 23.3142 28.6503 22.8788 29.0017 22.5274C29.3531 22.176 29.7885 22.0003 30.3079 22.0003C30.8274 22.0003 31.2628 22.176 31.6142 22.5274C31.9656 22.8788 32.1413 23.3142 32.1413 23.8337C32.1413 24.3531 31.9656 24.7885 31.6142 25.1399C31.2628 25.4913 30.8274 25.667 30.3079 25.667ZM22.9746 33.0003C22.4552 33.0003 22.0197 32.8246 21.6684 32.4732C21.317 32.1219 21.1413 31.6864 21.1413 31.167C21.1413 30.6475 21.317 30.2121 21.6684 29.8607C22.0197 29.5094 22.4552 29.3337 22.9746 29.3337C23.4941 29.3337 23.9295 29.5094 24.2809 29.8607C24.6322 30.2121 24.8079 30.6475 24.8079 31.167C24.8079 31.6864 24.6322 32.1219 24.2809 32.4732C23.9295 32.8246 23.4941 33.0003 22.9746 33.0003ZM15.6413 33.0003C15.1218 33.0003 14.6864 32.8246 14.335 32.4732C13.9836 32.1219 13.8079 31.6864 13.8079 31.167C13.8079 30.6475 13.9836 30.2121 14.335 29.8607C14.6864 29.5094 15.1218 29.3337 15.6413 29.3337C16.1607 29.3337 16.5961 29.5094 16.9475 29.8607C17.2989 30.2121 17.4746 30.6475 17.4746 31.167C17.4746 31.6864 17.2989 32.1219 16.9475 32.4732C16.5961 32.8246 16.1607 33.0003 15.6413 33.0003ZM30.3079 33.0003C29.7885 33.0003 29.3531 32.8246 29.0017 32.4732C28.6503 32.1219 28.4746 31.6864 28.4746 31.167C28.4746 30.6475 28.6503 30.2121 29.0017 29.8607C29.3531 29.5094 29.7885 29.3337 30.3079 29.3337C30.8274 29.3337 31.2628 29.5094 31.6142 29.8607C31.9656 30.2121 32.1413 30.6475 32.1413 31.167C32.1413 31.6864 31.9656 32.1219 31.6142 32.4732C31.2628 32.8246 30.8274 33.0003 30.3079 33.0003Z" fill="#1C1B1F"/>
</g>
</svg>
