<svg width="20" height="20" viewBox="0 0 45 44" fill="none" xmlns="http://www.w3.org/2000/svg">
<mask id="mask0_64_563" style="mask-type:alpha" maskUnits="userSpaceOnUse" x="0" y="0" width="45" height="44">
<rect x="0.949219" width="44" height="44" fill="#D9D9D9"/>
</mask>
<g mask="url(#mask0_64_563)">
<path d="M28.9986 30.617L31.5652 28.0503L24.7819 21.267V12.8337H21.1152V22.7337L28.9986 30.617ZM22.9486 40.3337C20.4125 40.3337 18.0291 39.8524 15.7986 38.8899C13.568 37.9274 11.6277 36.6212 9.97773 34.9712C8.32773 33.3212 7.02148 31.3809 6.05898 29.1503C5.09648 26.9198 4.61523 24.5364 4.61523 22.0003C4.61523 19.4642 5.09648 17.0809 6.05898 14.8503C7.02148 12.6198 8.32773 10.6795 9.97773 9.02949C11.6277 7.37949 13.568 6.07324 15.7986 5.11074C18.0291 4.14824 20.4125 3.66699 22.9486 3.66699C25.4847 3.66699 27.868 4.14824 30.0986 5.11074C32.3291 6.07324 34.2694 7.37949 35.9194 9.02949C37.5694 10.6795 38.8757 12.6198 39.8382 14.8503C40.8007 17.0809 41.2819 19.4642 41.2819 22.0003C41.2819 24.5364 40.8007 26.9198 39.8382 29.1503C38.8757 31.3809 37.5694 33.3212 35.9194 34.9712C34.2694 36.6212 32.3291 37.9274 30.0986 38.8899C27.868 39.8524 25.4847 40.3337 22.9486 40.3337ZM22.9486 36.667C27.0125 36.667 30.4729 35.2385 33.3298 32.3816C36.1868 29.5246 37.6152 26.0642 37.6152 22.0003C37.6152 17.9364 36.1868 14.476 33.3298 11.6191C30.4729 8.76213 27.0125 7.33366 22.9486 7.33366C18.8847 7.33366 15.4243 8.76213 12.5673 11.6191C9.71037 14.476 8.2819 17.9364 8.2819 22.0003C8.2819 26.0642 9.71037 29.5246 12.5673 32.3816C15.4243 35.2385 18.8847 36.667 22.9486 36.667Z" fill="#1C1B1F"/>
</g>
</svg>
