<svg width="25" height="25" viewBox="0 0 25 25" fill="none" xmlns="http://www.w3.org/2000/svg">
<mask id="mask0_325_2717" style="mask-type:alpha" maskUnits="userSpaceOnUse" x="0" y="0" width="25" height="25">
<rect x="0.914062" y="0.5" width="24" height="24" fill="#D9D9D9"/>
</mask>
<g mask="url(#mask0_325_2717)">
<path d="M12.9141 16.5L7.91406 11.5L9.31406 10.05L11.9141 12.65V4.5H13.9141V12.65L16.5141 10.05L17.9141 11.5L12.9141 16.5ZM6.91406 20.5C6.36406 20.5 5.89323 20.3042 5.50156 19.9125C5.1099 19.5208 4.91406 19.05 4.91406 18.5V15.5H6.91406V18.5H18.9141V15.5H20.9141V18.5C20.9141 19.05 20.7182 19.5208 20.3266 19.9125C19.9349 20.3042 19.4641 20.5 18.9141 20.5H6.91406Z" fill="#1C1B1F"/>
</g>
</svg>
