<svg width="20" height="20" viewBox="0 0 45 44" fill="none" xmlns="http://www.w3.org/2000/svg">
<mask id="mask0_64_682" style="mask-type:alpha" maskUnits="userSpaceOnUse" x="0" y="0" width="45" height="44">
<rect x="0.0742188" width="44" height="44" fill="#D9D9D9"/>
</mask>
<g mask="url(#mask0_64_682)">
<path d="M22.0739 21.9998C23.0822 21.9998 23.9454 21.6408 24.6635 20.9228C25.3815 20.2047 25.7406 19.3415 25.7406 18.3332C25.7406 17.3248 25.3815 16.4616 24.6635 15.7436C23.9454 15.0255 23.0822 14.6665 22.0739 14.6665C21.0656 14.6665 20.2024 15.0255 19.4843 15.7436C18.7663 16.4616 18.4072 17.3248 18.4072 18.3332C18.4072 19.3415 18.7663 20.2047 19.4843 20.9228C20.2024 21.6408 21.0656 21.9998 22.0739 21.9998ZM22.0739 35.4748C25.8017 32.0526 28.5669 28.9436 30.3697 26.1478C32.1725 23.3519 33.0739 20.8693 33.0739 18.6998C33.0739 15.3693 32.0121 12.6422 29.8885 10.5186C27.7649 8.39498 25.16 7.33317 22.0739 7.33317C18.9878 7.33317 16.3829 8.39498 14.2593 10.5186C12.1357 12.6422 11.0739 15.3693 11.0739 18.6998C11.0739 20.8693 11.9753 23.3519 13.7781 26.1478C15.5808 28.9436 18.3461 32.0526 22.0739 35.4748ZM22.0739 40.3332C17.1544 36.1471 13.4801 32.2589 11.051 28.6686C8.62181 25.0783 7.40723 21.7554 7.40723 18.6998C7.40723 14.1165 8.88153 10.4651 11.8301 7.74567C14.7788 5.02623 18.1933 3.6665 22.0739 3.6665C25.9544 3.6665 29.369 5.02623 32.3176 7.74567C35.2663 10.4651 36.7406 14.1165 36.7406 18.6998C36.7406 21.7554 35.526 25.0783 33.0968 28.6686C30.6676 32.2589 26.9933 36.1471 22.0739 40.3332Z" fill="#1C1B1F"/>
</g>
</svg>
